<?xml version="1.1" encoding="UTF-8" standalone="no"?>
<svg version="1.1" id="图层_1" xmlns="http://www.w3.org/2000/svg" xmlns:xlink="http://www.w3.org/1999/xlink" x="0px" y="0px" viewBox="0 0 256 256" style="enable-background:new 0 0 256 256;" xml:space="preserve">
<style type="text/css">
    .st0{fill:#1895D3;}
    .st1{fill:#FCFDFD;}
    .st2{font-family:'Hero';}
    .st3{font-size:33.4444px;}
    .st4{fill:#FFFFFF;}
</style>
<path id="XMLID_147_" class="st0" d="M127.8,0c70.7,0,128,57.3,128,128s-57.3,128-128,128s-128-57.3-128-128S57.1,0,127.8,0"></path>
<text id="XMLID_19_" transform="matrix(1 0 0 1 76.6445 215.6158)" class="st1 st2 st3">Health</text>
<g id="Roz9Xs.tif">
    <g>
        <path class="st4" d="M209.7,82.4c-0.2,14.3-5.3,26.2-15.2,35.9c-21,20.5-42.2,40.8-63.3,61.2c-2.7,2.6-4,2.6-6.7,0.1
            c-21.4-20.6-42.8-41.2-64.1-62c-24.6-24-17.3-65.4,13.9-79.2c12.5-5.5,24.9-5.5,36.8,2.3c4.6,3,8.9,6.4,12.9,10.2
            c3.4,3.2,4,3.1,7.4,0.1c12.4-11.2,27-16.7,43.6-13.5c18.3,3.5,28.3,16.2,33.1,33.4C209.4,74.8,209.7,78.8,209.7,82.4z"></path>
        <path class="st0" d="M162.6,70.9c-5.8,6.5-11.5,13-17.3,19.5c-7.2,8.1-14.4,16.2-21.6,24.3c-1.1,1.2-1.7,1.4-2.9,0.1
            c-7.1-7.6-14.2-15.1-21.4-22.6c-1.4-1.4-0.9-2.1,0-3.3c0.9-1.1,1.4-2.3,2.9-0.6c5.9,6.5,12,12.7,17.9,19.1c1.4,1.5,2.1,1.7,3.6,0
            c11.1-12.7,22.4-25.3,33.6-37.9C159.7,67.1,162.3,70.4,162.6,70.9z"></path>
    </g>
</g>
</svg>