<?xml version="1.1" encoding="UTF-8" standalone="no"?>
<svg version="1.1" id="图层_1" xmlns="http://www.w3.org/2000/svg" xmlns:xlink="http://www.w3.org/1999/xlink" x="0px" y="0px" viewBox="0 0 256 256" style="enable-background:new 0 0 256 256;" xml:space="preserve">
<style type="text/css">
    .st0{fill:#1895D3;}
    .st1{enable-background:new    ;}
    .st2{fill:#FFFFFF;}
</style>
<path id="XMLID_507_" class="st0" d="M256,128C256,57.3,198.7,0,128,0l0,0C57.3,0,0,57.3,0,128l0,0c0,70.7,57.3,128,128,128l0,0
    C198.7,256,256,198.7,256,128"></path>
<g class="st1">
    <path class="st2" d="M76.3,196.5c1.1-1.1,3.2-0.7,3.2,0.9v25.4c0,1.8-3,1.8-3,0v-21.5l-3.7,5.3c-1.4,2.1-4,0.2-2.8-1.5L76.3,196.5z
        "></path>
    <path class="st2" d="M89.6,209.3c-3-0.8-5-3-5-6.2c0-10.4,21.3-10.2,21.3,0c0,3.1-1.4,5-4.7,6.2v0.1c3.5,0.6,5.6,3,5.6,6.3
        c0,6.2-6.1,8.3-11.6,8.3c-5.4,0-11.5-2.1-11.5-8.4C83.6,212.2,86.1,210,89.6,209.3L89.6,209.3z M86.7,215.7c0,4.2,5.1,5.3,8.5,5.3
        c3.3,0,8.5-1.1,8.5-5.3C103.7,209.3,86.7,209.2,86.7,215.7z M102.8,203c0-6.4-15.2-6.4-15.2,0S102.8,209.4,102.8,203z"></path>
    <path class="st2" d="M120.4,195.4c5.1,0,10.2,3.5,10.2,10.3v7.9c0,6.9-5.1,10.4-10.2,10.4c-5.1,0-10.2-3.5-10.2-10.4v-7.9
        C110.1,198.9,115.2,195.4,120.4,195.4z M120.3,198.3c-3.5,0-7.1,2.1-7.1,7.5v7.9c0,5.2,3.5,7.5,7.1,7.5c3.6,0,7.2-2.1,7.2-7.5v-7.9
        C127.5,200.4,123.9,198.3,120.3,198.3z"></path>
    <path class="st2" d="M155.2,196c1.7-1.5,3.9,0.8,2.3,2.2l-11.6,10.3l12.4,13c1.7,1.9-0.7,3.6-2.3,2.1l-12.3-13l-4.6,4.1v8
        c0,2-3.2,2.1-3.2,0V197c0-2,3.2-2,3.2,0v13.9l4.2-4.3L155.2,196z"></path>
    <path class="st2" d="M186.5,218.9c-2.6,3.4-6.9,5.3-11.2,5.3c-7.5,0-14-6.3-13.8-14.6c0-6.7,5-12.7,11.7-14
        c0.7-0.1,1.5-0.1,2.3-0.1c3.8,0,7.9,1.3,10.3,4.1c1.3,1.5-0.9,3.6-2.3,2.1c-2.5-2.8-6.5-3.9-9.8-3c-4.8,1.1-9,5.4-9,11.1
        c0.1,6.2,5.1,11.3,10.7,11.5c3.2,0,6.6-1.4,8.5-3.9v-5.8h-7.9c-2.1,0-1.8-2.9,0-2.9h9.3c1.3,0,1.7,0.7,1.7,1.6v7.3
        C187,217.9,186.9,218.5,186.5,218.9z"></path>
</g>
<rect id="XMLID_504_" x="41.8" y="112.4" class="st2" width="172.4" height="14.9"></rect>
<rect id="XMLID_503_" x="52.9" y="133.3" class="st2" width="150.2" height="6.8"></rect>
<polygon id="XMLID_502_" class="st2" points="166.6,83.5 157,81.4 170.1,104.1 184,81.9 175.6,83.6 175.8,39.6 166.5,39.6 "></polygon>
<polygon id="XMLID_501_" class="st2" points="121.9,83.5 112.3,81.4 125.4,104.1 139.3,81.9 130.9,83.6 131.1,39.6 121.9,39.6 "></polygon>
<polygon id="XMLID_500_" class="st2" points="77.2,83.5 67.7,81.4 80.8,104.1 94.7,81.9 86.2,83.6 86.4,39.6 77.2,39.6 "></polygon>
<g>
    <path class="st2" d="M57.4,161.9c0.3-0.5,1-0.4,1,0.2v18.1c0,0.7-1,0.7-1,0v-16.5L49.6,176c-0.2,0.4-0.8,0.4-1,0l-7.7-12.1v16.5
        c0,0.7-1,0.7-1,0v-18.1c0-0.6,0.7-0.8,1-0.2l8.3,13L57.4,161.9z"></path>
    <path class="st2" d="M70.3,165.3c1.3,0,2.5,0.3,3.6,1c1,0.7,1.7,1.6,2.2,2.8v-3c0-0.3,0.2-0.5,0.5-0.5s0.5,0.2,0.5,0.5v14.4
        c0,0.3-0.2,0.5-0.5,0.5s-0.5-0.2-0.5-0.5v-3c-0.5,1.2-1.2,2.1-2.2,2.8c-1.9,1.1-4.3,1.4-6.6,0.5c-3.2-1.3-4.9-4.3-4.8-7.8
        c0.1-3,1.7-5.8,4.6-6.9C68.1,165.5,69.1,165.3,70.3,165.3z M76.1,174.5v-2.6c-0.1-2.2-1.1-4-3.1-4.9c-0.9-0.4-1.7-0.6-2.7-0.6
        c-2.5,0-5.1,1.3-6.1,3.8c-0.3,0.8-0.5,1.7-0.5,2.6c-0.1,2.3,0.7,4.4,2.6,6c1.1,0.8,2.3,1.3,3.7,1.3c1,0,2-0.2,3-0.7
        C74.9,178.5,76,176.7,76.1,174.5z"></path>
    <path class="st2" d="M80.7,166.4c-0.6-0.6,0.2-1.3,0.8-0.8l5.7,6.8l6.1-6.9c0.4-0.6,1.3,0.1,0.8,0.7l-6.1,6.9l6.4,7
        c0.5,0.7-0.3,1.3-0.8,0.6l-6.3-7l-5.9,7c-0.6,0.6-1.4-0.1-0.8-0.8l5.9-6.9L80.7,166.4z"></path>
    <path class="st2" d="M119.1,180.1c-6.8,3.4-14.4-1.6-14.2-9.1c0.1-5.1,3.4-8.8,8.1-9.5c3.5-0.5,6.4,0.1,8.9,2.9
        c0.4,0.5-0.3,1.1-0.7,0.6c-2.4-2.6-4.8-2.9-8.1-2.5c-4.2,0.7-7.1,3.7-7.3,8.6c-0.2,6.6,6.7,11.2,12.8,8.2c1.1-0.5,2.1-1.3,2.8-2.3
        c0.4-0.6,1.2,0,0.8,0.6C121.5,178.6,120.4,179.4,119.1,180.1z"></path>
    <path class="st2" d="M132.6,165.3c1.3,0,2.5,0.3,3.6,1c1,0.7,1.7,1.6,2.2,2.8v-3c0-0.3,0.2-0.5,0.5-0.5c0.3,0,0.5,0.2,0.5,0.5v14.4
        c0,0.3-0.2,0.5-0.5,0.5c-0.3,0-0.5-0.2-0.5-0.5v-3c-0.4,1.2-1.2,2.1-2.2,2.8c-1.9,1.1-4.3,1.4-6.6,0.5c-3.2-1.3-4.9-4.3-4.8-7.8
        c0.1-3,1.7-5.8,4.6-6.9C130.4,165.5,131.4,165.3,132.6,165.3z M138.4,174.5v-2.6c-0.1-2.2-1.1-4-3.1-4.9c-0.9-0.4-1.7-0.6-2.7-0.6
        c-2.5,0-5.1,1.3-6.2,3.8c-0.3,0.8-0.5,1.7-0.5,2.6c-0.1,2.3,0.7,4.4,2.6,6c1,0.8,2.3,1.3,3.7,1.3c1,0,2-0.2,3-0.7
        C137.2,178.5,138.2,176.7,138.4,174.5z"></path>
    <path class="st2" d="M151.1,181.1c-2.5-0.1-4.8-1.3-5.8-3.6v8.7c0,0.3-0.2,0.5-0.5,0.5s-0.5-0.2-0.5-0.5V166c0-0.3,0.2-0.5,0.5-0.5
        s0.5,0.2,0.5,0.5v3c0.5-1.2,1.2-2,2.2-2.7c1.9-1.1,4.3-1.4,6.6-0.5c3.2,1.3,4.9,4.3,4.8,7.8c-0.1,3-1.7,5.8-4.6,6.9
        C153.3,181,152.3,181.2,151.1,181.1z M145.3,171.9v2.6c0.2,3.1,2.4,5.4,5.8,5.5c2.5,0,5.1-1.3,6.1-3.8c0.3-0.8,0.5-1.7,0.5-2.6
        c0.1-2.3-0.7-4.4-2.6-6c-1-0.8-2.3-1.3-3.7-1.3c-1,0-2,0.2-3,0.7C146.5,167.9,145.5,169.7,145.3,171.9z"></path>
    <path class="st2" d="M169.6,165.3c1.3,0,2.5,0.3,3.6,1c1,0.7,1.7,1.6,2.2,2.8v-3c0-0.3,0.2-0.5,0.5-0.5c0.3,0,0.5,0.2,0.5,0.5v14.4
        c0,0.3-0.2,0.5-0.5,0.5c-0.3,0-0.5-0.2-0.5-0.5v-3c-0.4,1.2-1.2,2.1-2.2,2.8c-1.9,1.1-4.3,1.4-6.6,0.5c-3.2-1.3-4.9-4.3-4.8-7.8
        c0.1-3,1.7-5.8,4.6-6.9C167.5,165.5,168.5,165.3,169.6,165.3z M175.4,174.5v-2.6c-0.1-2.2-1.1-4-3.1-4.9c-0.9-0.4-1.7-0.6-2.7-0.6
        c-2.5,0-5.1,1.3-6.2,3.8c-0.3,0.8-0.5,1.7-0.5,2.6c-0.1,2.3,0.7,4.4,2.6,6c1,0.8,2.3,1.3,3.7,1.3c1,0,2-0.2,3-0.7
        C174.3,178.5,175.3,176.7,175.4,174.5z"></path>
    <path class="st2" d="M186,166.5c-4.5,1.2-6.1,7.6-3.1,11.2c2.4,3,7.6,3.2,10,0c0.1-0.1,0.2-0.2,0.4-0.2c0.3,0,0.5,0.2,0.6,0.5
        c0,0.2,0,0.3-0.1,0.4c-2.9,3.6-8.8,3.5-11.7,0c-1.3-1.6-1.9-3.5-1.7-5.7c0.2-3.4,2.1-6.2,5.4-7c3.2-0.7,5.6-0.2,7.8,2.2
        c0.1,0.1,0.1,0.2,0.1,0.3c0,0.3-0.1,0.5-0.5,0.6c-0.2,0-0.4,0-0.5-0.2C190.9,166.4,188.6,166,186,166.5z"></path>
    <path class="st2" d="M198.4,163.5c0,0.7-1.1,0.7-1.1,0v-1.7c0-0.7,1.1-0.7,1.1,0V163.5z M197.3,166c0-0.7,1-0.7,1,0v14.6
        c0,0.7-1,0.7-1,0V166z"></path>
    <path class="st2" d="M209.8,165.5c0.8,0,0.8,1,0,1h-4.2v9.2c0,2.2,0.4,4.4,3.2,4.4c0.6,0,1.4-0.2,1.8-0.5c0.6-0.3,1.2,0.5,0.4,0.9
        c-0.8,0.4-1.4,0.5-2.2,0.5c-3.4,0-4.2-2.5-4.2-5.3v-9.2h-2.8c-0.8,0-0.8-1,0-1h2.8v-3.8c0-0.7,1-0.6,1,0v3.8H209.8z"></path>
    <path class="st2" d="M212.9,166.1c-0.2-0.6,0.6-1,1-0.4l6.8,13.5l6.7-13.5c0.3-0.8,1.4-0.3,1,0.4l-10.2,20.1
        c-0.4,0.8-1.2,0.4-1-0.3l2.8-5.6L212.9,166.1z"></path>
</g>
</svg>