<?xml version="1.1" encoding="UTF-8" standalone="no"?>
<svg version="1.1" id="图层_1" xmlns="http://www.w3.org/2000/svg" xmlns:xlink="http://www.w3.org/1999/xlink" x="0px" y="0px" viewBox="0 0 256 256" style="enable-background:new 0 0 256 256;" xml:space="preserve">
<style type="text/css">
    .st0{fill:#1895D3;}
    .st1{fill:#FCFDFD;}
    .st2{enable-background:new    ;}
</style>
<g id="XMLID_414_">
    <path id="XMLID_419_" class="st0" d="M128,0c70.7,0,128,57.3,128,128s-57.3,128-128,128S0,198.7,0,128S57.3,0,128,0"></path>
    <path id="XMLID_418_" class="st1" d="M128,80.5c-3.6,0-6.5-2.9-6.5-6.5V26.6c0-3.6,2.9-6.5,6.5-6.5c3.6,0,6.5,2.9,6.5,6.5V74
        C134.5,77.6,131.6,80.5,128,80.5"></path>
    <path id="XMLID_416_" class="st1" d="M128,139.3c-30.4,0-55.1-24.7-55.1-55.1c0-21.7,12.9-41.5,32.8-50.3c3.6-1.6,7.8,0,9.3,3.6
        c1.6,3.6,0,7.8-3.6,9.4C96.6,53.5,87,68.1,87,84.2c0,22.6,18.4,40.9,40.9,40.9c22.6,0,40.9-18.4,40.9-40.9
        c0-16.1-9.6-30.8-24.4-37.4c-3.6-1.6-5.2-5.8-3.6-9.4c1.6-3.6,5.8-5.2,9.3-3.6c19.9,8.8,32.8,28.6,32.8,50.3
        C183.1,114.6,158.4,139.3,128,139.3"></path>
    <g class="st2">
        <path class="st1" d="M65.2,182.4l-2.8,5.5c-0.6,1.3-2.9,0.4-2.3-1l10.5-20.7c0.2-0.5,0.7-0.7,1.1-0.7s0.9,0.2,1.1,0.7l10.5,20.6
            c0.9,1.5-1.7,2.4-2.3,1l-2.7-5.4H65.2z M71.7,169.3l-5.5,10.9h10.9L71.7,169.3z"></path>
        <path class="st1" d="M88.7,180.8c0,3.2,2.6,5.4,5.4,5.4c3.4,0,6.5-2.8,6.5-6.6v-8.1c0-0.8,0.5-1.2,1.3-1.2c0.8,0,1.3,0.5,1.3,1.2
            v15.6c0,1.6-2.5,1.6-2.5,0V185c-1.2,2.5-3.9,3.6-6.6,3.6c-4,0-7.9-2.8-7.9-7.8v-9.2c0-0.8,0.5-1.2,1.3-1.2c0.8,0,1.3,0.5,1.3,1.2
            V180.8z"></path>
        <path class="st1" d="M116.1,170.6c1.6,0,1.6,2.2,0,2.2h-3.8v9.4c0,2,0.3,4.1,2.7,4.1c0.5,0,1.3-0.2,1.6-0.4c1.5-0.8,2.6,1.2,1,2.1
            c-0.9,0.5-1.7,0.6-2.7,0.6c-4.2,0-5.2-3.1-5.2-6.4v-9.4h-2.3c-1.6,0-1.5-2.2,0-2.2h2.3v-4c0-1.7,2.5-1.6,2.5,0v4H116.1z"></path>
        <path class="st1" d="M122.2,185.4c-1.6-1.8-2.2-4.1-2.1-6.7c0.3-3.9,2.6-7.1,6.4-8.2c0.8-0.2,1.8-0.3,2.6-0.3
            c0.8,0,1.7,0.1,2.6,0.3c3.8,1.1,6.1,4.3,6.5,8.2c0.1,2.6-0.6,4.8-2.1,6.7c-1.7,2-4.2,3.1-6.9,3.1
            C126.4,188.6,123.9,187.5,122.2,185.4z M129.1,172.7c-0.7,0-1.3,0.1-1.8,0.2c-2.9,0.8-4.6,3.5-4.6,6.6c0,1.6,0.5,3.2,1.5,4.4
            c1.2,1.5,3.1,2.3,5,2.3c1.9,0,3.8-0.9,5-2.3c1-1.2,1.5-2.8,1.5-4.3c0-3.2-1.7-5.9-4.7-6.7C130.5,172.8,129.8,172.7,129.1,172.7z"></path>
        <path class="st1" d="M152.8,185.4c-1.6-1.8-2.2-4.1-2.1-6.7c0.3-3.9,2.6-7.1,6.4-8.2c0.8-0.2,1.8-0.3,2.6-0.3
            c0.8,0,1.7,0.1,2.6,0.3c3.8,1.1,6.1,4.3,6.5,8.2c0.1,2.6-0.6,4.8-2.1,6.7c-1.7,2-4.2,3.1-6.9,3.1
            C157,188.6,154.5,187.5,152.8,185.4z M159.7,172.7c-0.7,0-1.3,0.1-1.8,0.2c-2.9,0.8-4.6,3.5-4.6,6.6c0,1.6,0.5,3.2,1.5,4.4
            c1.2,1.5,3.1,2.3,5,2.3c1.9,0,3.8-0.9,5-2.3c1-1.2,1.5-2.8,1.5-4.3c0-3.2-1.7-5.9-4.7-6.7C161.1,172.8,160.4,172.7,159.7,172.7z"></path>
        <path class="st1" d="M176.3,173.1v14.2c0,1.5-2.5,1.5-2.5,0v-14.2h-1.9c-1.4,0-1.3-2.1,0-2.1h1.8v-0.8c0-4.4,5.3-6.4,8.5-3.9
            c1.2,1-0.4,2.7-1.4,1.8c-1.4-1.3-4.5-0.5-4.5,2.2v0.7h3.3c1.2,0,1.2,2.1,0,2.1H176.3z"></path>
        <path class="st1" d="M188.5,173.1v14.2c0,1.5-2.5,1.5-2.5,0v-14.2h-1.9c-1.4,0-1.3-2.1,0-2.1h1.8v-0.8c0-4.4,5.3-6.4,8.5-3.9
            c1.2,1-0.4,2.7-1.4,1.8c-1.4-1.3-4.5-0.5-4.5,2.2v0.7h3.3c1.2,0,1.2,2.1,0,2.1H188.5z"></path>
    </g>
    <g class="st2">
        <path class="st1" d="M46.8,200c0,0.6-1,0.6-1,0v-1.6c0-0.6,1-0.6,1,0V200z M45.8,202.3c0-0.7,1-0.7,1,0v13.5c0,0.7-1,0.7-1,0
            V202.3z"></path>
        <path class="st1" d="M63.7,207.8c0-3.6-3.4-5.9-6.6-5c-2.9,0.7-4.8,3.4-4.9,6.3v6.6c0,0.3-0.2,0.5-0.5,0.5s-0.5-0.2-0.5-0.5v-13.4
            c0-0.2,0.2-0.5,0.5-0.5s0.5,0.2,0.5,0.5v3.8c0.6-2.3,2.6-3.8,4.6-4.3c3.7-0.9,7.9,1.3,7.9,5.9v7.9c0,0.3-0.2,0.5-0.5,0.5
            c-0.3,0-0.5-0.2-0.5-0.5V207.8z"></path>
        <path class="st1" d="M75.6,211.2c0-2.3,1.6-3.8,3.9-4.1c-1.9-0.5-3.4-2-3.4-4.2c0-0.8,0.2-1.5,0.5-2.1c1.1-2.2,3.9-2.9,6.2-2.9
            c2.2,0,5,0.7,6.1,2.9c0.3,0.6,0.5,1.2,0.5,2.1c0,2.3-1.4,3.6-3.4,4.1c2.3,0.3,3.9,1.9,3.9,4.2c0,4.1-3.7,5.3-7.1,5.3
            C79.4,216.5,75.6,215.4,75.6,211.2z M76.5,211.3c0,3.4,3.6,4.5,6.3,4.5c2.6,0,6.3-1,6.3-4.5c0-3.2-3.2-3.8-6.3-3.8
            C79.6,207.5,76.5,208.1,76.5,211.3z M88.6,203c0-0.3,0-0.7-0.1-1c-1.3-4.2-10.1-4.2-11.3,0c-0.1,0.3-0.2,0.7-0.2,1
            c0,3,2.8,3.8,5.8,3.8S88.6,206,88.6,203z"></path>
        <path class="st1" d="M100.7,212.8c0.4,1.7,3,2.5,5.4,2.5c1.7,0,5.2-0.7,5.2-3.2c0-4.9-11.4-0.4-11.4-6.4c0-2.7,3.3-4.1,5.9-4.1
            c2.1,0,5.1,0.4,6,2.8c0.2,0.8-0.7,0.9-0.9,0.4c-0.8-2.1-3.6-2.3-5.1-2.3c-2,0-4.9,0.9-4.9,3.1c0,4.7,11.4,0.4,11.4,6.4
            c0,3.3-3.9,4.1-6.2,4.1c-2.3,0-5.8-0.6-6.3-3.3C99.6,212.3,100.6,212.1,100.7,212.8z"></path>
        <path class="st1" d="M129.3,208.9c0,0.4-0.1,0.9-0.9,0.9h-12.5c0.1,1.2,0.6,2.3,1.4,3.3c1.2,1.4,2.9,2.1,4.7,2.1
            c1.5,0,3.1-0.4,4.4-1.4c0.5-0.4,1.2,0.2,0.6,0.7c-1.3,1.2-3.1,1.7-4.9,1.7c-2.2,0-4.3-0.8-5.6-2.5c-1.2-1.5-1.8-3.2-1.7-5.3
            c0.1-3,2.1-5.7,5.1-6.5c1.3-0.3,2.8-0.4,4.2,0C127.3,202.8,129.2,205.4,129.3,208.9z M115.9,208.9h12.4c-0.1-3.1-1.7-5.4-4.5-6.1
            c-1.1-0.3-2.4-0.3-3.6,0C117.5,203.6,115.9,206.2,115.9,208.9z"></path>
        <path class="st1" d="M137.3,202.8c-4.1,1.1-5.6,7-2.9,10.3c2.3,2.8,7.1,2.9,9.3,0c0.1-0.1,0.2-0.2,0.3-0.2c0.3,0,0.5,0.2,0.6,0.4
            c0,0.2,0,0.3-0.1,0.4c-2.7,3.3-8.2,3.3-10.8,0c-1.2-1.4-1.7-3.2-1.6-5.3c0.2-3.1,2-5.7,5-6.5c2.9-0.6,5.2-0.2,7.2,2.1
            c0.1,0.1,0.1,0.2,0.1,0.3c0,0.2-0.1,0.5-0.4,0.5c-0.2,0-0.3,0-0.4-0.2C141.8,202.8,139.7,202.3,137.3,202.8z"></path>
        <path class="st1" d="M148.5,213.8c-1.2-1.5-1.8-3.2-1.7-5.3c0.2-3,2.1-5.7,5.1-6.5c1.3-0.3,2.8-0.4,4.2,0c3,0.8,4.9,3.6,5.1,6.5
            c0.1,2.1-0.4,3.8-1.7,5.3c-1.4,1.6-3.3,2.5-5.5,2.5C151.8,216.3,149.9,215.4,148.5,213.8z M152.2,202.9c-4.3,1.1-5.8,6.9-3,10.3
            c1.1,1.4,2.9,2.1,4.8,2.1c1.9,0,3.7-0.8,4.8-2.1c2.8-3.4,1.3-9.1-3-10.3C154.7,202.6,153.4,202.6,152.2,202.9z"></path>
        <path class="st1" d="M177.3,207.8c0-3.6-3.4-5.9-6.6-5c-2.9,0.7-4.8,3.4-4.9,6.3v6.6c0,0.3-0.2,0.5-0.5,0.5s-0.5-0.2-0.5-0.5
            v-13.4c0-0.2,0.2-0.5,0.5-0.5s0.5,0.2,0.5,0.5v3.8c0.6-2.3,2.6-3.8,4.6-4.3c3.7-0.9,7.9,1.3,7.9,5.9v7.9c0,0.3-0.2,0.5-0.5,0.5
            c-0.3,0-0.5-0.2-0.5-0.5V207.8z"></path>
        <path class="st1" d="M189.1,201.7c1.2,0,2.3,0.3,3.3,0.9c0.9,0.6,1.6,1.4,2,2.5v-6.7c0-0.3,0.2-0.5,0.5-0.5s0.5,0.2,0.5,0.5v17.3
            c0,0.3-0.2,0.5-0.5,0.5s-0.5-0.2-0.5-0.5V213c-0.4,1.1-1.1,1.9-2,2.5c-1.8,1-4,1.3-6.1,0.4c-3-1.2-4.5-4-4.4-7.2
            c0.1-2.8,1.6-5.4,4.2-6.4C187.1,201.9,188,201.7,189.1,201.7z M194.5,210.3v-2.4c-0.1-2-1.1-3.7-2.9-4.6c-0.8-0.4-1.6-0.5-2.5-0.6
            c-2.4,0-4.8,1.2-5.7,3.5c-0.3,0.7-0.5,1.6-0.5,2.4c-0.1,2.1,0.6,4.1,2.4,5.6c1,0.8,2.2,1.2,3.4,1.2c1,0,1.9-0.2,2.8-0.6
            C193.4,214,194.3,212.3,194.5,210.3z"></path>
        <path class="st1" d="M199.6,212.8c0.4,1.7,3,2.5,5.4,2.5c1.7,0,5.2-0.7,5.2-3.2c0-4.9-11.4-0.4-11.4-6.4c0-2.7,3.3-4.1,5.9-4.1
            c2.1,0,5.1,0.4,6,2.8c0.2,0.8-0.7,0.9-0.9,0.4c-0.8-2.1-3.6-2.3-5.1-2.3c-2,0-4.9,0.9-4.9,3.1c0,4.7,11.4,0.4,11.4,6.4
            c0,3.3-3.9,4.1-6.2,4.1c-2.3,0-5.8-0.6-6.3-3.3C198.5,212.3,199.5,212.1,199.6,212.8z"></path>
    </g>
</g>
</svg>