<?xml version="1.1" encoding="UTF-8" standalone="no"?>
<svg xmlns="http://www.w3.org/2000/svg" viewBox="0 0 256 256"><style type="text/css">  
    .st0{fill:#1895D3;}
    .st1{fill:#FCFDFD;}
    .st2{font-family:'Hero';}
    .st3{font-size:33.4444px;}
    .st4{fill:none;stroke:#FFFFFF;stroke-width:3;stroke-miterlimit:10;}
</style><path class="st0" d="M256.5 128.3c0 70.7-57.3 128-128 128s-128-57.3-128-128 57.3-128 128-128c8.6 0 17 0.9 25.2 2.5 14.4 2.9 27.9 8.2 40.1 15.4C231.3 40.5 256.5 81.4 256.5 128.3z"></path><text transform="matrix(1 0 0 1 99.0664 221.9648)" class="st1 st2 st3">  BMI</text><rect x="54.1" y="102.4" class="st4" width="156.5" height="25.9"></rect><line class="st4" x1="70.6" y1="105.1" x2="70.6" y2="115.1"></line><line class="st4" x1="80.9" y1="105.1" x2="80.9" y2="115.1"></line><line class="st4" x1="91.2" y1="105.1" x2="91.2" y2="115.1"></line><line class="st4" x1="101.5" y1="105.1" x2="101.5" y2="115.1"></line><line class="st4" x1="111.8" y1="105.1" x2="111.8" y2="115.1"></line><line class="st4" x1="122.1" y1="105.1" x2="122.1" y2="115.1"></line><line class="st4" x1="132.4" y1="105.1" x2="132.4" y2="115.1"></line><line class="st4" x1="142.7" y1="105.1" x2="142.7" y2="115.1"></line><line class="st4" x1="153" y1="105.1" x2="153" y2="115.1"></line><line class="st4" x1="163.3" y1="105.1" x2="163.3" y2="115.1"></line><line class="st4" x1="173.6" y1="105.1" x2="173.6" y2="115.1"></line><line class="st4" x1="183.9" y1="105.1" x2="183.9" y2="115.1"></line><line class="st4" x1="194.2" y1="105.1" x2="194.2" y2="115.1"></line><path class="st4" d=""></path><ellipse class="st4" cx="128.5" cy="51.6" rx="32.2" ry="31.8"></ellipse><line class="st4" x1="128.5" y1="26.5" x2="128.5" y2="45.5"></line><path class="st4" d="M170.7 60.7c17.8-2.2 13.5 27.3 13.5 47.9v0c0 30.5-25 55.5-55.5 55.5h0c-30.5 0-55.5-25-55.5-55.5v0c0-20.5-4.9-49.1 14.9-48"></path><circle class="st4" cx="128.5" cy="51.6" r="6.5"></circle></svg>