<?xml version="1.1" encoding="UTF-8" standalone="no"?>
<svg version="1.1" id="图层_1" xmlns="http://www.w3.org/2000/svg" xmlns:xlink="http://www.w3.org/1999/xlink" x="0px" y="0px" viewBox="0 0 256 256" style="enable-background:new 0 0 256 256;" xml:space="preserve">
<style type="text/css">
    .st0{fill:#1895D3;}
    .st1{fill:#FCFDFD;}
    .st2{font-family:'Hero';}
    .st3{font-size:33.4444px;}
    .st4{fill:#FFFFFF;}
    .st5{fill:#009FE8;}
    .st6{fill:#FDFDFD;}
</style>
<g>
    <path id="XMLID_162_" class="st0" d="M128.3,0c70.7,0,128,57.3,128,128s-57.3,128-128,128s-128-57.3-128-128S57.6,0,128.3,0"></path>
    <text id="XMLID_161_" transform="matrix(1 0 0 1 60.4991 203.8321)"><tspan x="0" y="0" class="st1 st2 st3">Coffee </tspan><tspan x="0" y="28.2" class="st1 st2 st3">Brewing</tspan></text>
    <g>
        <g>
            <path class="st4" d="M206.1,95.8c-2-9.6-6.3-18-13.5-24.7c-5.1-4.6-11-7.5-18-7.8c-0.9,0-1.3-0.3-1.3-1.2c0-1.4-0.8-1.7-2.1-1.7
                c-32.7,0-65.4,0-98.2,0c-1.2,0-1.6,0.3-1.9,1.5c-1.7,8.7-2.8,17.4-3.3,26.2c0,0.3,0.2,0.8-0.3,1c0,0.7,0,1.5,0,2.2
                c0.2,1.2,0.2,2.4,0,3.6c0,2.6,0,5.2,0,7.8c0.2,1.1,0.2,2.2,0,3.3c0,0.6,0,1.3,0,1.9c0.3,0.5,0.1,1,0.1,1.5
                c0.2,2.5,0.2,5.1,0.5,7.6c0.7,5.4,1.6,10.8,2.9,16.1c2.7,10.8,6.7,21,13.2,30.1c1.2,1.7,2.3,3.6,4,4.9c22.5,0,45,0,67.6,0
                c3.9-4.8,7.4-9.9,10.1-15.5c0.4-0.8,0.7-0.9,1.6-0.8c6.9,1.4,13.4,0.4,19.4-3.2c6.7-3.9,11.5-9.6,14.9-16.5
                C207.6,120.6,208.8,108.4,206.1,95.8z"></path>
            <path class="st4" d="M143.1,37.5c0.4,3.4,1.1,6.7,2.5,9.9c0.5,1,0.8,1.4,2,0.8c1.5-0.8,2.9-1.7,4-3.1c3.9-4.8,4.9-10.3,3.7-16.2
                c-1.2-6.2-4.2-11.3-10-14.4c-1.2-0.6-2.6-0.8-3.8-1.3c-1.1,0-2.2,0-3.3,0c-0.4,0.5-1.2,0.1-1.7,0.8c4.4,3.8,5.8,8.9,6.1,14.4
                C142.7,31.4,142.8,34.5,143.1,37.5z"></path>
            <path class="st4" d="M145.1,48.9c-3.5-4-4.8-8.6-4.6-13.6c0.1-3.1,0.3-6.3,0.2-9.4c-0.2-4.2-1.4-7.9-4.2-11.1
                c-0.6-0.6-0.9-0.6-1.6-0.2c-3,1.6-4.9,4.1-6.1,7.2c-3.1,8.1-0.9,17.7,5.5,23.6C137.2,48.1,140.7,49.6,145.1,48.9z"></path>
            <path class="st4" d="M101.6,42.3c0.4,0,0.4,0.5,0.9,0.5c0.5-3.3,2.5-5.5,5.2-7.4c1.4-1,2.9-2.1,4.2-3.2c1.5-1.3,2.9-2.6,4-4.3
                c0.4-0.5,0.4-0.8-0.2-1.2c-0.9-0.5-1.7-0.8-2.7-0.9c-3.5-0.3-6.5,1-9,3.5c-2.6,2.6-4.2,5.6-4,9.2c0.1,0.8,0.4,1.4,0.5,2.2
                C100.9,41.3,101.3,41.8,101.6,42.3z"></path>
            <path class="st4" d="M111.6,34.2c-1.5,1-3.1,1.9-4.6,2.9c-2,1.4-3.4,3.2-4.1,5.5c-0.1,0.5,0,0.6,0.4,0.8c1.7,0.9,3.5,1,5.4,0.5
                c4.9-1.2,8.9-5.2,9.8-10.1c0.4-2.3,0.1-4.4-1.6-6.2C116,30.6,114.1,32.7,111.6,34.2z"></path>
        </g>
        <path class="st5" d="M170.1,142.7c1.5-4.6,2.8-9.2,3.8-13.9c2.4-11.5,3.1-23.1,2.9-34.8c-0.2-6.8-0.7-13.5-1.6-20.3
            c-0.1-0.9,0-1.1,0.9-0.9c7.3,1.1,12.7,5.1,16.8,10.9c5.9,8.4,7.9,17.8,7.1,27.9c-0.6,7.4-2.8,14.2-7.2,20.3
            c-4,5.5-9.1,9.4-15.9,10.7C174.7,143.1,172.5,143.2,170.1,142.7z"></path>
        <path class="st6" d="M98.3,118.5c1.4,0.1,2.8,0.1,4.3,0c1.3-0.1,0.9,0.8,1,1.4c0.1,0.8,0,1.4-1,1.2c-0.7-0.1-1.4,0-2.1,0
            c-0.5,0-1.1-0.1-1.6,0"></path>
        <path class="st4" d="M123,148.1c0,1,0,1.9,0,2.9c0,0.7,0,1.2-1,1.2c-0.9,0-1.1-0.2-1.1-1.1c0.1-2,0-4,0-5.9c0-0.7,0-1.1,1-1.2
            c1,0,1.1,0.4,1,1.2C122.9,146.2,123,147.1,123,148.1z"></path>
    </g>
</g>
</svg>