<?xml version="1.1" encoding="UTF-8" standalone="no"?>
<svg version="1.1" id="图层_1" xmlns="http://www.w3.org/2000/svg" xmlns:xlink="http://www.w3.org/1999/xlink" x="0px" y="0px" viewBox="0 0 256 256" style="enable-background:new 0 0 256 256;" xml:space="preserve">
<style type="text/css">
    .st0{fill:#1895D3;}
    .st1{fill:#FCFDFD;}
    .st2{font-family:'Hero';}
    .st3{font-size:33.3022px;}
    .st4{fill:#FFFFFF;}
</style>
<path id="XMLID_160_" class="st0" d="M256,128c0,70.7-57.3,128-128,128S0,198.7,0,128S57.3,0,128,0c8.6,0,17,0.9,25.2,2.5
    c14.4,2.9,27.9,8.2,40.1,15.4C230.8,40.2,256,81.2,256,128z"></path>
<text transform="matrix(1 0 0 1 92.2815 183.4947)" class="st1 st2 st3">App </text>
<text transform="matrix(1 0 0 1 36.4815 211.6947)" class="st1 st2 st3">Connection</text>
<g>
    <path class="st4" d="M204.8,62.2c-1.7,2.9-3.7,3.2-6.5,1.2c-14.9-11-31.5-18.1-49.8-21.4c-10.8-2-21.7-2.5-32.6-1.5
        c-22.4,2-42.6,9.7-60.7,22.9c-2.8,2-4.8,1.7-6.5-1.2c0-0.7,0-1.4,0-2.1c0.2-1.2,1.1-2,2-2.7c4.9-3.6,10.1-6.8,15.5-9.7
        c9.6-5.2,19.7-9,30.3-11.5c6.5-1.5,13-2.8,19.8-3c1.1,0,4.9-0.1,8.7-0.2c3.8-0.1,7,0,7.8,0s5.3,0.2,7.5,0.4
        c6.8,0.6,13.4,1.9,19.9,3.6c7.8,2,15.3,4.8,22.5,8.3s14,7.6,20.4,12.3c0.9,0.6,1.5,1.4,1.7,2.5C204.8,60.9,204.8,61.5,204.8,62.2z"></path>
    <path class="st4" d="M127.6,66.3c-14.5,0-27.1,2.5-39,8.3c-4.8,2.3-9.2,5.1-13.3,8.4c-1.8,1.4-4.1,1.4-5.4-0.1
        c-1.3-1.6-1-3.8,0.9-5.3c6.9-5.6,14.6-9.8,23-12.8c12.8-4.6,26-6.2,39.5-5.3c12.1,0.8,23.5,3.8,34.4,9.2c5,2.5,9.6,5.4,13.9,8.9
        c1.6,1.3,2.1,2.7,1.4,4.3c-0.9,2.3-3.7,2.9-5.8,1.2c-5-4-10.4-7.2-16.3-9.8C149.8,68.4,138.2,66.3,127.6,66.3z"></path>
    <path class="st4" d="M126.1,142.2c-7.9,0-14.2-6.4-14.2-14.2s6.4-14,14.2-14.1c7.8,0,14.2,6.3,14.2,14.1
        C140.4,135.9,134,142.2,126.1,142.2z"></path>
    <path class="st4" d="M126.2,91c12.3,0.1,23.5,3.4,33.4,10.7c0.9,0.7,1.8,1.4,2,2.6c0.3,1.6-0.3,3-1.5,3.7c-1.3,0.8-3,0.7-4.3-0.3
        c-2.9-2.2-6-4.2-9.5-5.6c-17.6-6.9-34.2-5.5-49.7,5.6c-1.7,1.2-4,1-5.2-0.4c-1.3-1.6-0.9-3.9,0.9-5.2c5.9-4.5,12.4-7.6,19.6-9.4
        C116.6,91.5,121.4,91,126.2,91z"></path>
</g>
</svg>