<?xml version="1.0" standalone="no"?><!DOCTYPE svg PUBLIC "-//W3C//DTD SVG 1.1//EN" "http://www.w3.org/Graphics/SVG/1.1/DTD/svg11.dtd"><svg class="icon" width="200px" height="200.00px" viewBox="0 0 1024 1024" version="1.1" xmlns="http://www.w3.org/2000/svg"><path fill="#bfbfbf" d="M512 0C228.8 0 0 228.8 0 512s228.8 512 512 512 512-228.8 512-512S795.2 0 512 0z m320 641.6C832 747.2 747.2 832 641.6 832H382.4c-104 0-187.2-83.2-190.4-185.6V377.6c3.2-104 88-185.6 190.4-185.6h259.2C747.2 192 832 276.8 832 382.4v259.2zM641.6 256H382.4C312 256 256 312 256 382.4v259.2C256 712 312 768 382.4 768h259.2C712 768 768 712 768 641.6V382.4c0-68.8-57.6-126.4-126.4-126.4zM520 688c-92.8 0-168-75.2-168-168s75.2-168 168-168 168 75.2 168 168-75.2 168-168 168z m160-304c-22.4 0-40-17.6-40-40s17.6-40 40-40 40 17.6 40 40-17.6 40-40 40z"  /><path fill="#bfbfbf" d="M417.6 520a102.4 102.4 0 1 0 204.8 0 102.4 102.4 0 1 0-204.8 0z"  /></svg>