<?xml version="1.0" encoding="utf-8"?>
<!-- Generator: Adobe Illustrator 21.0.0, SVG Export Plug-In . SVG Version: 6.00 Build 0)  -->
<svg version="1.1" id="Layer_1" xmlns="http://www.w3.org/2000/svg" xmlns:xlink="http://www.w3.org/1999/xlink" x="0px" y="0px"
	 viewBox="0 0 139.5 52.6" style="enable-background:new 0 0 139.5 52.6;" xml:space="preserve">
<style type="text/css">
	.st0{fill:#231F20;}
	.st1{display:none;fill:#D71921;}
	.st2{display:none;}
	.st3{display:inline;}
	.st4{fill:#C5C7C9;}
	.st5{fill:url(#SVGID_1_);}
	.st6{fill:url(#SVGID_2_);}
	.st7{fill:url(#SVGID_3_);}
	.st8{fill:url(#SVGID_4_);}
</style>
<g>
	<rect id="XMLID_11_" x="0.7" y="13.1" class="st0" width="7.7" height="38.8"/>
	<path id="XMLID_10_" class="st0" d="M12.2,19.2L26.6,5.1v8h12.3V20H26.6v19c0,4.4,1.8,6.7,5.5,6.7c2.8,0,5.7-0.9,8.7-2.7v7.2
		c-3,1.7-6.2,2.5-9.7,2.5c-3.5,0-6.4-1-8.8-3.1c-0.7-0.6-1.3-1.3-1.8-2.1c-0.5-0.8-0.9-1.8-1.2-3c-0.3-1.3-0.5-3.6-0.5-7.2V20h-6.8
		C12.2,20,12.2,19.2,12.2,19.2z"/>
	<path class="st0" d="M77.6,33.2H50.3c0.2,3.7,1.4,6.7,3.7,8.9c2.3,2.2,5.3,3.3,8.9,3.3c5.1,0,9.7-1.6,14-4.7v7.5
		c-2.4,1.6-4.7,2.7-7,3.4c-2.3,0.7-5,1-8.2,1c-4.3,0-7.7-0.9-10.4-2.7c-2.6-1.8-4.8-4.2-6.4-7.2c-1.6-3-2.4-6.5-2.4-10.4
		c0-5.9,1.7-10.7,5-14.4c3.3-3.7,7.7-5.5,13-5.5c5.1,0,9.3,1.8,12.3,5.4c3.1,3.6,4.6,8.4,4.6,14.5L77.6,33.2L77.6,33.2z M50.5,28.6
		H70c-0.2-3.1-1.1-5.4-2.7-7.1c-1.6-1.7-3.8-2.5-6.6-2.5c-2.8,0-5,0.8-6.8,2.5C52.2,23.1,51,25.5,50.5,28.6z"/>
	<path class="st0" d="M84.1,0.4h7.7v51.5h-7.7V0.4z M109.4,13.1h9.1l-16.6,19l19.9,19.8h-10.3L92.1,32.1L109.4,13.1z"/>
	<path id="XMLID_5_" class="st0" d="M9.3,4.7c0,2.6-2.1,4.7-4.7,4.7C2.1,9.3,0,7.2,0,4.7S2.1,0,4.7,0C7.2,0,9.3,2.1,9.3,4.7"/>
	<path class="st0" d="M131.2,4c1.5,0,2.9,0.4,4.1,1.1c1.3,0.7,2.3,1.8,3,3c0.7,1.3,1.1,2.7,1.1,4.1c0,1.5-0.4,2.9-1.1,4.1
		c-0.7,1.3-1.8,2.3-3,3c-1.3,0.7-2.7,1.1-4.2,1.1c-1.5,0-2.9-0.4-4.2-1.1c-1.3-0.7-2.3-1.7-3-3c-0.7-1.3-1.1-2.7-1.1-4.1
		s0.4-2.9,1.1-4.1c0.7-1.3,1.8-2.3,3-3C128.4,4.4,129.7,4,131.2,4 M131.2,5.4c-1.9,0-3.5,0.7-4.9,2c-1.4,1.3-2,3-2,4.9
		c0,1.9,0.7,3.5,2,4.9c1.3,1.3,3,2,4.9,2c1.9,0,3.5-0.7,4.9-2c1.3-1.3,2-3,2-4.9c0-1.9-0.7-3.5-2-4.9C134.7,6.1,133.1,5.4,131.2,5.4
		z M129,16.9h-1.4V8h3.1c1.1,0,1.9,0.1,2.3,0.3c0.4,0.2,0.8,0.5,1.1,0.9c0.3,0.4,0.4,0.8,0.4,1.3c0,0.7-0.2,1.3-0.7,1.7
		c-0.5,0.5-1.1,0.7-1.8,0.8c0.3,0.1,0.7,0.4,0.9,0.7c0.3,0.3,0.7,0.8,1.1,1.6l1.1,1.7h-1.8l-0.8-1.4c-0.6-1-1-1.7-1.3-1.9
		c-0.3-0.3-0.8-0.4-1.3-0.4H129L129,16.9L129,16.9z M129,9.2v2.7h1.8c0.7,0,1.3-0.1,1.6-0.3c0.3-0.2,0.5-0.6,0.5-1
		c0-0.5-0.2-0.8-0.5-1c-0.3-0.2-0.9-0.3-1.8-0.3H129z"/>
</g>
<path id="XMLID_24_" class="st1" d="M185.5,64.9c-0.1,0-0.2-0.1-0.3-0.1c0-0.1,0-0.2,0-0.2c0-0.1,0.1-0.1,0.1-0.2
	c0.2,0,0.3-0.1,0.5-0.1c0.1,0,0.2,0,0.3,0c0,0.1,0.1,0.1,0.1,0.2c0,0.1-0.1,0.1-0.1,0.2c-0.1,0.1-0.2,0.1-0.3,0.2
	C185.7,64.9,185.6,64.9,185.5,64.9 M185.6,66.8c-0.3-0.1-0.5-0.1-0.8-0.2c-0.1,0-0.1-0.1-0.2-0.1c-0.3-0.4-0.3-0.4-0.5-0.7
	c0-0.1-0.1-0.2-0.1-0.3c0-0.2,0-0.4,0-0.6c0-0.2,0.1-0.4,0.1-0.6c0.1-0.1,0.1-0.2,0.2-0.4c0.1-0.1,0.2-0.1,0.3-0.2
	c0.1-0.1,0.3-0.1,0.4-0.2c0.2,0,0.5-0.1,0.8-0.1c0.2,0,0.4,0.1,0.7,0.1c0.3,0.3,0.3,0.3,0.5,0.4c0.1,0.1,0.1,0.2,0.3,0.3
	c0.3,0.7,0.3,0.7,0.3,0.9c0,0.2-0.1,0.3-0.1,0.5c-0.1,0.1-0.1,0.3-0.2,0.5c-0.1,0-0.1,0-0.1,0.1c-0.1,0-0.1-0.1-0.2-0.1
	c-0.1-0.2-0.3-0.4-0.4-0.6c0-0.1,0-0.1,0-0.2c0.1-0.1,0.2-0.2,0.4-0.3c0.1-0.2,0.1-0.2,0.1-0.4c0-0.2-0.1-0.3-0.1-0.5
	c0-0.1-0.1-0.1-0.1-0.2c-0.1-0.1-0.3-0.1-0.5-0.2c-1,0-1,0-1.3,0c-0.1,0-0.1,0.1-0.1,0.2c0,0.7,0.1,1.4,0.1,2.1c0,0,0.1,0.1,0.1,0.1
	c0.1,0,0.1,0,0.2,0c0,0,0,0,0.1-0.1c0-0.2,0-0.4,0-0.6c0,0,0,0,0.1-0.1c0.1,0,0.2,0,0.3,0c0.1,0.1,0.2,0.2,0.3,0.3
	c0.1,0.1,0.2,0.3,0.3,0.4c0.1,0.1,0.3,0.2,0.4,0.3c0,0.1,0,0.1,0.1,0.2c-0.1,0-0.1,0.1-0.2,0.1C186,66.8,186,66.8,185.6,66.8z
	 M185.6,67.3c-0.3-0.1-0.5-0.1-0.8-0.2c-0.1-0.1-0.3-0.1-0.5-0.2c-0.6-0.5-0.6-0.5-0.7-0.7c-0.1-0.2-0.2-0.5-0.2-0.7
	c0-0.3,0-0.6,0-0.8c0.1-0.2,0.2-0.5,0.3-0.7c0.7-0.5,0.7-0.5,0.9-0.6c0.5-0.1,0.8-0.2,1-0.2c0.2,0,0.5,0.1,0.7,0.1
	c0.3,0.2,0.7,0.5,1,0.7c0.1,0.2,0.2,0.4,0.4,0.6c0,0.2,0.1,0.3,0.1,0.5c0,0.2,0,0.5,0,0.8c-0.1,0.2-0.1,0.4-0.2,0.6
	c-0.1,0.1-0.2,0.3-0.3,0.5c-0.3,0.1-0.6,0.3-0.9,0.5C186,67.3,186,67.3,185.6,67.3z M135.6,65.2c-0.1,0-0.2-0.1-0.3-0.1
	c-0.2-0.2-0.3-0.3-0.5-0.5c-0.1-0.3-0.2-0.6-0.3-0.9c0-0.6,0-1.1,0-1.7c0.4-1.9,0.6-2.6,0.8-3.1c0.1-0.1,0.1-0.2,0.2-0.4
	c0.2-0.6,0.4-1.2,0.7-1.8c0.2-0.4,0.4-0.7,0.5-0.9c0.3-0.7,0.7-1.4,1-2.1c0.6-0.8,1.1-1.6,1.7-2.5c0.3-0.4,0.6-0.8,0.9-1.2
	c0.4-0.4,0.8-0.8,1.3-1.2c0.3-0.1,0.6-0.3,0.8-0.4c0.3-0.1,0.6-0.1,1-0.2c0.2,0,0.4,0,0.6-0.1c0.5,0.2,0.5,0.2,0.8,0.4
	c0.1,0.2,0.3,0.4,0.4,0.6c0,0.1,0.1,0.2,0.1,0.4c0,0.4,0,0.9,0,1.3c-0.1,0.4-0.1,0.8-0.2,1.2c-0.2,0.7-0.4,1.4-0.6,2.1
	c-0.1,0.1-0.1,0.3-0.2,0.5c0,0.1-0.1,0.3-0.1,0.5c-0.2,0.3-0.3,0.7-0.5,1c-0.1,0.4-0.3,0.8-0.4,1.2c-0.2,0.5-0.4,1-0.7,1.5
	c-0.2,0.5-0.4,0.9-0.7,1.3c-0.5,0.6-0.5,0.6-1,1.3c-0.1,0.1-0.3,0.3-0.5,0.5c-0.1,0.1-0.1,0.3-0.2,0.4c-0.5,0.5-1,1-1.4,1.5
	c-0.3,0.2-0.7,0.4-1,0.7c-0.3,0.1-0.6,0.3-0.9,0.5c-0.3,0.1-0.6,0.1-0.8,0.2C135.9,65.2,135.8,65.2,135.6,65.2z M96,66.2
	c-0.1,0-0.2-0.1-0.3-0.1c-0.3-0.3-0.3-0.3-0.6-0.6c-0.1-0.3-0.2-0.6-0.3-0.8c0-0.2,0-0.4-0.1-0.7c0.1-0.5,0.1-0.5,0.1-1.1
	c0.1-0.2,0.1-0.4,0.2-0.6c0.1-0.6,0.3-1.1,0.4-1.7c0.1-0.1,0.1-0.3,0.2-0.5c0.1-0.3,0.1-0.5,0.2-0.8c0.4-0.9,0.8-1.8,1.2-2.7
	c0-0.1,0-0.2,0.1-0.2c0.9-1.6,0.9-1.6,1.8-3c0.3-0.4,0.6-0.9,0.9-1.3c0.5-0.5,1.1-1,1.5-1.6c0.3-0.2,0.6-0.5,0.9-0.7
	c1-0.5,1-0.5,1.3-0.6c0.2,0,0.5,0,0.8,0c0.2,0.1,0.4,0.1,0.6,0.2c0.3,0.2,0.3,0.2,0.4,0.4c0,0.2,0.1,0.4,0.1,0.6
	c0,0.3,0,0.6,0.1,0.9c-0.1,0.6-0.1,1.3-0.2,1.9c0,0.1-0.1,0.1-0.1,0.2c0,0.2,0,0.3,0,0.5c-0.2,0.6-0.3,0.7-0.7,2.1
	c-0.1,0.4-0.3,0.7-0.4,1.1c-0.1,0.1-0.2,0.3-0.3,0.4c-0.1,0.2-0.1,0.4-0.2,0.6c-0.3,0.6-0.6,1.2-0.9,1.8c-0.9,1.6-0.9,1.6-1.2,2.1
	c-0.3,0.4-0.6,0.9-1,1.4c-0.2,0.1-0.6,0.7-1.6,1.6c-0.1,0.1-0.3,0.2-0.4,0.3c-0.2,0.1-0.3,0.1-0.6,0.2c-0.2,0.1-0.3,0.2-0.5,0.3
	c-0.1,0-0.2,0.1-0.3,0.1C96.7,66.1,96.3,66.2,96,66.2z M58.1,67.9c-0.4-0.1-0.7-0.1-1.1-0.2c-0.3-0.2-0.6-0.5-0.9-0.7
	c-0.1-0.2-0.3-0.4-0.4-0.7c-0.1-0.2-0.2-0.5-0.3-0.8c0-0.2-0.1-0.4-0.1-0.6c0-0.3,0-0.3,0-1c-0.1,0-0.2,0.1-0.3,0.1
	c-0.1,0.2-0.2,0.3-0.4,0.5c-0.5,0.5-0.7,0.7-1.8,1.6c-1.5,0.9-1.5,0.9-2.4,1.4c-0.2,0-0.5,0.1-0.7,0.2c-0.7,0.1-0.7,0.1-1.7,0.1
	c-0.2,0-0.3,0-0.5,0c-0.3-0.1-0.5-0.2-0.8-0.3c-0.2-0.1-0.5-0.3-0.8-0.5c-0.3-0.4-0.3-0.4-0.8-0.9c-0.1-0.3-0.3-0.6-0.4-1
	c0-0.5,0-1-0.1-1.4c0.1-0.8,0.2-1.6,0.3-2.3c0.1-0.2,0.2-0.3,0.2-0.5c0.1-0.5,0.3-1,0.4-1.4c0.1-0.1,0.1-0.3,0.2-0.4
	c0-0.2,0.1-0.3,0.1-0.5c0.2-0.4,0.2-0.4,0.4-1.1c0.2-0.3,0.3-0.6,0.5-0.9c0-0.1,0-0.2,0-0.4c0.2-0.3,0.3-0.6,0.5-1
	c0.4-1.3,0.6-1.6,0.7-2c0.1-0.1,0.1-0.2,0.2-0.4c2-5.1,2-5.1,2.2-5.5c0.1-0.1,0.2-0.1,0.3-0.2c1.5,0,3,0,4.5,0
	c0.1,0.1,0.1,0.1,0.2,0.2c0,0.1,0,0.2,0,0.2c-0.6,1.4-1.1,2.8-1.7,4.2c-0.2,0.5-0.5,1-0.7,1.5c-0.2,0.6-0.4,1.2-0.7,1.8
	c-0.1,0.1-0.2,0.3-0.3,0.4c-0.3,0.8-0.6,1.5-0.9,2.3c-0.1,0.3-0.2,0.7-0.3,1.1c-0.1,0.1-0.2,0.2-0.2,0.4c-0.9,2.6-0.9,2.6-1.1,3.5
	c0,0.5,0,1,0,1.5c0.1,0.2,0.2,0.3,0.3,0.4c0.1,0,0.2,0.1,0.3,0.2c0.1,0,0.2,0.1,0.4,0.1c0.2,0,0.4,0,0.7,0c0.1,0,0.3-0.1,0.4-0.1
	c0.4-0.2,0.7-0.4,1.1-0.6c0.4-0.3,0.8-0.6,1.1-0.9c0.3-0.3,0.6-0.7,1-1.1c0.3-0.4,0.6-0.9,0.9-1.3c0.1-0.2,0.1-0.3,0.2-0.5
	c0.2-0.2,0.3-0.5,0.5-0.7c0.4-1.1,0.4-1.1,0.6-1.3c0.1-0.2,0.1-0.5,0.2-0.7c0.2-0.3,0.3-0.7,0.5-1c0.2-0.7,0.3-0.9,0.5-1.7
	c0.1-0.2,0.2-0.3,0.3-0.5c0.5-1.2,1-2.5,1.5-3.7c0-0.1,0-0.2,0-0.3c0.2-0.5,0.5-0.9,0.7-1.4c0.1-0.4,0.1-0.4,0.5-1.5
	c0.1-0.1,0.2-0.2,0.3-0.3c0.1,0,0.1-0.1,0.2-0.1c1.1,0,1.1,0,2.1-0.1c0.3,0,0.6,0,0.9,0.1c0.4-0.1,0.8,0,1.4-0.1
	c0,0,0.1,0.1,0.1,0.2c0,0.1,0,0.2,0,0.4c-0.2,0.3-0.3,0.7-0.5,1c-0.5,1.3-1,2.7-1.6,4c-0.2,0.4-1.1,2.8-2,4.8
	c-0.1,0.2-0.1,0.5-0.2,0.8c-0.1,0.1-0.2,0.2-0.3,0.3c-0.1,0.4-0.2,0.7-0.4,1.1c-0.1,0.1-0.1,0.1-0.6,1.3c-0.4,1.3-0.4,1.3-0.5,1.5
	c-0.1,0.6-0.3,1.2-0.4,1.8c0,0.2,0,0.4,0,0.6c0,0.1,0.1,0.2,0.1,0.3c0.1,0,0.1,0.1,0.2,0.1c0.2,0,0.5-0.1,0.7-0.1
	c0.4-0.2,0.8-0.4,1.2-0.7c0.5-0.5,0.8-0.8,1.1-1.1c0.3-0.3,0.3-0.3,1.3-1.3c0.1,0,0.2-0.1,0.4-0.2c0.1,0,0.2,0,0.3,0
	c0,0.1,0.1,0.1,0.1,0.1c0,0.1,0,0.2,0,0.2c0,0.1-0.1,0.2-0.1,0.4c-0.3,0.2-0.3,0.2-1.2,1.5c-1,1-1,1-2,2c-0.5,0.4-1.1,0.8-1.7,1.2
	c-0.2,0-0.3,0-0.5,0.1c-0.2,0.1-0.2,0.1-0.6,0.2C58.5,67.9,58.5,67.9,58.1,67.9z M178.1,67.4c-0.8,0-1.6,0-2.3,0
	c-0.1,0-0.2-0.1-0.3-0.1c0-0.1-0.1-0.1-0.2-0.2c0.2-0.6,0.4-1.2,0.7-1.8c0.6-1.4,1.2-2.9,1.8-4.3c0.6-1.6,1.2-3.1,1.8-4.7
	c0.1-0.3,0.3-0.6,0.4-0.9c0-0.1,0-0.3,0-0.4c0.3-0.7,0.6-1.4,0.9-2.1c0.4-1.3,0.4-1.3,0.5-1.4c0-0.3,0.1-0.6,0.1-0.9
	c0-0.2-0.1-0.4-0.1-0.5c-0.1-0.1-0.1-0.1-0.4-0.3c-0.3,0-0.6,0-0.9,0c-0.6,0.3-0.6,0.3-1.3,0.7c-0.4,0.3-0.7,0.6-1.1,1
	c-0.5,0.5-1,1-1.5,1.5c-0.6,0.9-1.3,1.8-1.9,2.7c-0.9,1.6-0.9,1.6-1.4,2.6c0,0.1-0.1,0.2-0.1,0.4c-0.1,0.1-0.2,0.2-0.3,0.4
	c-0.8,2.1-1,2.5-1.7,4.2c-0.2,0.7-0.2,0.7-0.7,1.8c-0.2,0.3-0.3,0.6-0.5,1c0,0.2-0.1,0.3-0.1,0.5c-0.1,0.2-0.2,0.4-0.3,0.7
	c-0.1,0-0.1,0.1-0.1,0.1c-0.5,0-1,0.1-1.5,0.1c-1,0-2,0-3.1-0.1c-0.2-0.1-0.2-0.1-0.2-0.3c0.2-0.6,0.4-1.2,0.6-1.8
	c0.1-0.1,0.1-0.2,0.2-0.3c0.1-0.2,0.1-0.5,0.2-0.7c0.3-0.7,0.6-1.4,0.9-2.1c0-0.1,0.1-0.3,0.1-0.4c0.8-1.9,1.5-3.7,1.7-4.1
	c0.4-1.2,0.9-2.3,1.3-3.5c0.4-1,0.4-1,0.6-1.3c0.2-0.4,0.2-0.4,0.4-0.8c0.1-0.5,0.1-0.9,0.2-1.4c0-0.1,0-0.2,0-0.3
	c-0.1-0.2-0.1-0.2-0.4-0.3c-0.2,0-0.4,0-0.6,0c-0.6,0.2-1,0.5-1.4,0.6c-0.4,0.4-0.4,0.4-1.2,1.1c-1,1.1-1.4,1.7-1.7,1.9
	c-1.2,1.7-1.5,2.1-1.7,2.4c-0.4,0.7-0.7,1.4-1.1,2.1c-1.1,2.7-1.1,2.7-1.2,2.9c-0.1,0.2-0.1,0.5-0.2,0.7c-0.6,1.5-1.2,2.9-1.8,4.4
	c-0.1,0.3-0.1,0.5-0.2,0.8c-0.1,0.2-0.2,0.4-0.3,0.6c-0.1,0-0.2,0.1-0.3,0.1c-0.3,0-0.3,0-0.5-0.1c-0.4,0-0.8,0.1-1.1,0.1
	c-0.8,0-1.7,0-2.6,0c-0.1,0-0.2-0.1-0.3-0.2c0-0.1,0-0.3,0-0.4c0.1-0.2,0.2-0.3,0.2-0.5c0.1-0.4,0.3-0.8,1.2-3.2
	c0.1-0.1,0.2-0.3,0.3-0.4c0.1-0.4,0.1-0.4,0.7-1.7c0-0.2,0.1-0.3,0.1-0.5c0.2-0.4,0.3-0.8,0.6-1.3c0.2-0.6,0.4-1.2,0.7-1.8
	c0-0.2,0.1-0.4,0.1-0.6c0.1-0.1,0.2-0.2,0.3-0.3c0.2-0.6,0.4-1.2,0.7-1.8c0-0.1,0.1-0.2,0.2-0.3c0.1-0.4,0.3-0.9,0.4-1.3
	c0.1-0.1,0.1-0.2,0.2-0.3c0.1-0.4,0.1-0.4,0.6-1.6c0.1-0.6,0.1-0.6,0.2-0.8c0-0.3,0-0.7,0-1c0,0-0.1-0.1-0.1-0.2
	c-0.2-0.1-0.3-0.1-0.5-0.2c-0.1,0-0.3,0-0.4,0c-0.3,0.1-0.4,0.2-0.9,0.4c-0.2,0.1-0.4,0.3-0.7,0.5c-1.1,1-1.1,1-1.4,1.2
	c-0.7,0.7-0.7,0.7-0.9,0.8c-0.5,0.6-1,1.1-1.4,1.7c-0.1,0.1-0.2,0.1-0.4,0.2c0,0-0.1,0-0.2,0c-0.2-0.1-0.2-0.1-0.3-0.3
	c0-0.1,0-0.2,0-0.3c0.1-0.1,0.2-0.3,0.3-0.4c0.6-0.7,1.3-1.5,1.9-2.2c0.1-0.1,0.2-0.1,0.3-0.2c0.1-0.1,0.1-0.2,0.2-0.3
	c0.4-0.3,0.8-0.6,1.2-1c0.4-0.3,0.9-0.6,1.3-0.9c0.5-0.2,1-0.5,1.5-0.7c0.5-0.1,1-0.2,1.5-0.3c0.5,0,0.9,0,1.4,0
	c0.3,0.1,0.7,0.1,1.1,0.2c0.2,0.1,0.3,0.1,0.4,0.2c0.2,0.2,0.4,0.4,0.5,0.6c0.1,0.3,0.2,0.6,0.4,0.9c0.1,0.9,0.1,0.9,0,1.7
	c0,0.2-0.1,0.4-0.1,0.5c0,0.2,0,0.3,0,0.5c0.1,0,0.1,0,0.1,0c0.5-0.5,1-1.1,1.5-1.7c0.3-0.2,0.6-0.5,2.2-1.6
	c0.4-0.2,0.8-0.5,1.1-0.7c0.5-0.2,1.1-0.4,1.6-0.6c0.3,0,0.6-0.1,0.9-0.1c0.3,0,0.7,0,1,0c0.3,0.1,0.6,0.1,0.9,0.2
	c0.2,0.1,0.4,0.3,0.7,0.5c0.3,0.3,0.3,0.3,0.6,0.9c0.1,0.7,0.1,0.7,0.2,1.5c0,0.6-0.1,1.1-0.2,1.7c0.1,0,0.1,0,0.2,0
	c0.7-0.8,1.2-1.3,1.4-1.6c1.1-1,1.1-1,2.3-1.9c0.4-0.2,0.8-0.5,1.2-0.7c0.4-0.1,0.9-0.3,1.3-0.5c0.2-0.1,0.5-0.1,0.7-0.1
	c0.4,0,0.8,0,1.2,0c0.8,0.2,0.8,0.2,1.4,0.5c0.2,0.1,0.3,0.2,0.5,0.4c0.2,0.3,0.3,0.5,0.5,0.8c0,0.3,0.1,0.6,0.1,0.9
	c0,0.5,0,1,0,1.5c0,0.2-0.1,0.4-0.1,0.6c-0.2,0.6-0.4,1.2-0.6,1.8c-0.4,0.9-0.7,1.8-1.1,2.7c-0.1,0.2-0.1,0.5-0.2,0.7
	c-0.1,0.1-0.1,0.2-0.2,0.4c-0.7,1.8-0.8,2-1.2,3.2c-0.1,0.2-0.1,0.2-1.7,4.3c-0.7,1.5-0.7,1.5-1,2.5c-0.1,0.1-0.1,0.1-0.5,0.2
	C179.3,67.3,178.7,67.3,178.1,67.4z M95.7,67.8c-0.3,0-0.6-0.1-0.9-0.1c-0.3-0.1-0.6-0.1-0.9-0.2c-0.2-0.1-0.6-0.2-0.9-0.3
	c-0.1-0.1-0.2-0.2-0.4-0.2c-0.2-0.2-0.3-0.3-0.5-0.5c-0.3-0.3-0.5-0.6-0.8-1c-0.2-0.4-0.2-0.4-0.5-1.3c-0.1-0.5-0.2-1-0.3-1.5
	c0-0.5,0-1.1-0.1-1.6c-0.1,0.1-0.2,0.1-0.3,0.2c-0.7,0.9-1.4,1.8-2.2,2.8c-0.1,0.1-0.2,0.1-0.3,0.2c-0.1,0.2-0.3,0.4-0.5,0.6
	c-0.9,0.7-0.9,0.7-2,1.7c-0.7,0.5-0.7,0.5-1.6,0.9c-0.2,0.1-0.5,0.1-0.7,0.2c-0.5,0-0.6,0.1-1.5,0.2c-0.3,0-0.6-0.1-1-0.1
	c-0.2-0.1-0.4-0.1-0.6-0.2c-0.6-0.5-0.6-0.5-1.2-1c-0.3-0.4-0.3-0.4-0.5-1c-0.1-0.3-0.1-0.7-0.2-1c0-0.3,0-0.6,0-0.9
	c0.1-0.5,0.1-0.9,0.2-1.4c0.1-0.5,0.3-1,0.4-1.6c0.2-0.5,0.4-1,0.6-1.5c0.1-0.1,0.2-0.3,0.3-0.5c0-0.2,0.1-0.3,0.1-0.5
	c0.9-1.7,0.9-1.7,1.7-3.4c0.2-0.4,0.5-0.7,0.7-1.1c0-0.1,0-0.2,0-0.3c0.1-0.1,0.2-0.2,0.2-0.3c0.1-0.3,0.3-0.6,0.4-1
	c0.1-0.5,0.3-1.1,0.5-1.6c0-0.2,0-0.5,0-0.8c0-0.1-0.1-0.3-0.1-0.4c-0.1-0.1-0.2-0.2-0.4-0.3c-0.2,0-0.4,0-0.6,0
	c-0.1,0-0.3,0.1-0.5,0.1c-0.5,0.3-1.1,0.6-1.6,0.9c-0.3,0.2-0.6,0.5-0.8,0.7c-0.3,0.3-0.7,0.7-1.1,1.1c-0.6,0.6-1.1,1.3-1.7,1.9
	c-0.5,0.7-0.5,0.7-0.7,1c-0.3,0.5-0.6,1-0.9,1.5c-0.3,0.6-0.6,1.2-0.9,1.9c-2.5,6.2-2.5,6.2-2.6,6.4c-0.8,2.1-0.8,2.1-1.1,2.8
	c0,0-0.1,0.1-0.2,0.1c-1,0-2.1,0-3.1,0c-0.8,0.1-0.8,0.1-1.3,0.1c-0.1,0-0.2-0.1-0.2-0.1c0-0.1-0.1-0.2-0.1-0.3
	c0.3-0.7,0.7-1.5,1-2.3c0.1-0.2,0.1-0.5,0.2-0.8c0.2-0.3,0.3-0.6,0.5-0.9c0.1-0.3,0.2-0.6,0.3-1c0.1-0.3,0.3-0.6,0.4-0.9
	c0.2-0.7,0.5-1.2,0.7-1.9c0.1-0.3,0.3-0.6,0.4-1c0.1-0.3,0.1-0.5,0.2-0.7c0.2-0.4,0.2-0.4,0.4-1c0.1-0.1,0.2-0.2,0.2-0.4
	c0-0.1,0-0.2,0-0.3c0.1-0.2,0.2-0.3,0.3-0.5c0-0.1,0-0.3,0-0.4c0.9-2,0.9-2,1.4-3.1c0-0.2,0.1-0.3,0.1-0.5c0.1-0.2,0.1-0.2,0.9-1.9
	c0.1-0.4,0.3-0.8,0.4-1.3c0.1-0.2,0.2-0.4,0.4-0.6c0.1-0.1,0.1-0.1,0.2-0.2c4.3-0.1,4.3-0.1,4.6,0c0.1,0.1,0.1,0.1,0.2,0.2
	c-0.2,0.6-0.3,0.8-1,2.5c-0.1,0.3-0.3,0.6-0.4,0.9c0,0.2,0,0.3,0,0.5c0.1,0,0.2-0.1,0.3-0.1c0.4-0.4,0.9-0.9,1.4-1.3
	c0.4-0.3,0.8-0.6,1.1-1c0.4-0.2,0.8-0.4,1.2-0.6c0.1-0.1,0.1-0.2,0.2-0.3c0.3-0.2,0.7-0.4,1-0.6c0.5-0.1,1-0.3,1.5-0.5
	c0.6-0.1,0.6-0.1,1.7-0.1c1.2,0.2,1.2,0.2,1.5,0.3c0.3,0.2,0.6,0.5,1,0.7c0.2,0.3,0.3,0.7,0.5,1c0,0.3,0.1,0.6,0.1,0.9
	c0,0.4,0,0.7,0,1.1c-0.1,0.6-0.3,1.1-0.4,1.7c-0.4,1-0.4,1-0.9,2.1c-0.3,0.6-0.6,1.1-0.9,1.7c-0.5,1.1-1.1,2.2-1.6,3.3
	c-0.2,0.6-0.7,1.6-0.9,2.2c0,0,0,0.1-0.1,0.1c-0.1,0.6-0.2,1.2-0.4,1.9c0,0.2,0,0.3,0,0.5c0,0.1,0.1,0.3,0.1,0.4
	c0.1,0.1,0.2,0.2,0.3,0.3c0.1,0.1,0.2,0.1,0.4,0.2c0.2,0,0.4,0,0.6,0c0.1,0,0.2-0.1,0.4-0.1c0.9-0.5,0.9-0.5,1.5-0.9
	c0.7-0.8,0.7-0.8,1.7-1.9c0.6-0.8,1.3-1.7,1.9-2.5c0.5-0.7,0.9-1.4,1.4-2c0.5-1,1-2,1.6-2.9c0.1-0.2,0.1-0.4,0.2-0.6
	c0.5-0.8,0.5-0.8,0.8-1.6c0-0.2,0.1-0.3,0.1-0.5c0.2-0.4,0.4-1,0.6-1.2c0-0.3,0-0.3,0.3-0.8c0.1-0.2,0.4-0.8,0.5-1
	c0-0.1,0-0.2,0-0.3c0.1-0.2,0.3-0.4,0.4-0.7c0-0.1,0-0.2,0-0.4c0.9-2.3,0.9-2.3,1.3-3.5c0.2-0.3,0.3-0.6,0.5-1
	c0.6-1.7,0.7-1.8,1.1-3c0.3-0.7,0.6-1.4,0.9-2.1c0-0.2,0.1-0.3,0.1-0.5c0.2-0.5,0.4-1,0.7-1.5c0,0,0.1-0.1,0.1-0.2
	c0.1,0,0.2-0.1,0.3-0.1c1,0,2,0,3.1,0c0.1,0,0.2,0,0.4-0.1c0.3,0,0.6,0,0.9,0c0.2,0.1,0.2,0.1,0.2,0.2c0,0.1,0,0.3,0,0.5
	c-0.1,0.1-0.1,0.2-0.2,0.3c-0.1,0.4-0.1,0.4-0.4,0.7c-0.3,1-0.3,1-0.8,2.1c-0.1,0.1-0.1,0.2-0.2,0.4c-0.4,1.1-0.9,2.3-1.3,3.5
	c-0.1,0.3-0.3,0.6-0.4,0.9c-0.9,2.3-1,2.7-1.1,2.9c0,0.1-0.1,0.3-0.1,0.4c-0.1,0.2-0.2,0.4-0.3,0.6c-0.1,0.2-0.1,0.5-0.2,0.7
	c-0.3,0.5-0.4,0.9-0.5,1.1c0,0.1,0,0.1,0.1,0.2c0.3-0.2,0.3-0.2,0.8-0.8c0.5-0.4,0.9-0.7,1.4-1.1c0.3-0.2,0.6-0.3,0.8-0.5
	c1.1-0.5,1.1-0.5,2.4-0.9c0.6,0,1.3,0,1.9,0c0.3,0,0.5,0.1,0.8,0.2c0.2,0.1,0.5,0.2,0.7,0.3c0.3,0.3,0.5,0.5,0.8,0.8
	c0.2,0.3,0.4,0.6,0.6,0.8c0.2,0.7,0.2,0.7,0.5,1.8c0,1.2,0,1.2-0.1,2.4c-0.1,0.7-0.3,1.4-0.4,2.1c-0.4,1.2-0.4,1.2-1.3,3.4
	c-0.1,0.2-0.3,0.4-0.5,0.7c-0.1,0.2-0.1,0.3-0.2,0.5c-0.6,0.8-1.2,1.7-1.9,2.6c-0.3,0.3-0.6,0.7-0.9,1c-0.1,0.1-0.2,0.1-0.3,0.2
	c-0.2,0.3-0.5,0.5-0.8,0.8c-1.3,0.9-1.6,1.2-1.9,1.4c-0.6,0.3-1.2,0.6-1.8,0.9c-0.4,0.1-0.8,0.3-1.2,0.5c-0.4,0.1-0.8,0.3-1.3,0.4
	C96.2,67.8,96,67.8,95.7,67.8z M144.3,67.7c-0.2,0-0.4,0-0.7-0.1c-0.2-0.1-0.4-0.1-0.7-0.2c-0.2-0.2-0.5-0.3-0.7-0.5
	c-0.2-0.2-0.3-0.4-0.5-0.6c-0.1-0.2-0.2-0.3-0.3-0.5c0-0.2-0.1-0.5-0.2-0.8c0-0.7,0.1-1.4,0.1-2.1c0,0-0.1,0-0.1-0.1
	c-0.5,0.6-1,1.2-1.5,1.7c-0.9,0.7-0.9,0.7-1.1,1c-0.7,0.5-1.3,0.9-2,1.4c-0.5,0.2-1,0.4-1.5,0.6c-0.2,0-0.4,0-0.6,0
	c-0.1,0-0.2,0.1-0.4,0.1c-0.2,0-0.4,0-0.6,0c-0.4-0.1-0.8-0.2-1.3-0.3c-0.2-0.1-0.5-0.3-0.7-0.4c-0.3-0.3-0.5-0.6-0.8-0.8
	c-0.2-0.3-0.3-0.6-0.5-0.9c-0.1-0.2-0.2-0.5-0.3-0.8c-0.1-0.6-0.1-1.2-0.3-1.8c0-0.9,0.1-1.7,0.1-2.6c0,0,0,0-0.1,0
	c-0.2,0.2-0.4,0.3-0.6,0.5c-0.3,0.3-0.7,0.7-1,1c-0.1,0.1-0.2,0.1-0.3,0.2c-0.1,0.1-0.2,0.2-0.3,0.4c-0.2,0.1-1.1,0.9-1.4,1.1
	c-0.1,0.1-0.1,0.2-0.2,0.3c-0.4,0.2-0.4,0.2-2.3,1.6c-0.8,0.5-1.7,0.9-2.5,1.4c-0.6,0.2-1.1,0.5-1.7,0.7c-1.4,0.3-1.4,0.3-1.7,0.5
	c-0.6,0-1.2,0.1-1.8,0.1c-0.5,0-1-0.1-1.5-0.1c-0.3-0.1-0.5-0.1-0.8-0.2c-0.1-0.1-0.1-0.1-0.8-0.3c-1-0.7-1-0.7-1.3-0.8
	c-0.5-0.8-0.5-0.8-0.7-0.9c-0.2-0.3-0.3-0.6-0.5-1c0-0.2,0-0.3-0.1-0.5c-0.1-0.3-0.1-0.3-0.3-0.9c-0.1-1.3-0.1-1.3-0.1-1.8
	c0.1-0.4,0.1-0.8,0.2-1.2c0.2-0.6,0.3-1.1,0.4-1.7c0.4-0.8,0.7-1.7,1.1-2.6c0-0.1,0.1-0.1,0.2-0.2c0.1-0.2,0.1-0.3,0.2-0.5
	c0.2-0.2,0.3-0.4,0.5-0.6c0.1-0.2,0.2-0.3,0.3-0.5c0.4-0.6,0.9-1.1,1.4-1.7c0.5-0.5,1-1,1.5-1.6c0.4-0.3,0.8-0.6,1.2-0.9
	c0.8-0.5,0.8-0.5,1.4-0.9c0.6-0.3,1.2-0.6,1.8-0.9c0.7-0.2,1.3-0.5,2-0.7c0.5-0.1,0.9-0.1,1.4-0.2c1-0.1,1-0.1,2.5,0
	c0.2,0.1,0.8,0.1,1,0.2c0.1,0,0.2,0,0.4,0c0.2,0.1,0.2,0.1,0.9,0.4c0.8,0.5,0.8,0.5,1.2,0.8c0.2,0.2,0.4,0.5,0.6,0.7
	c0,0.1,0,0.2,0.1,0.3c0.1,0.2,0.2,0.4,0.3,0.6c0,0.3,0.1,0.6,0.1,0.8c0,0.5,0,1-0.1,1.4c-0.2,0.4-0.3,0.8-0.5,1.3
	c-0.2,0.3-0.4,0.6-0.6,0.8c-0.2,0.1-0.3,0.2-0.5,0.3c-0.1,0.2-0.3,0.4-0.5,0.6c-1.5,0.9-1.5,0.9-2.4,1.4c-0.3,0.1-0.3,0.1-1.3,0.6
	c-0.4,0.1-0.7,0.2-1.1,0.3c-0.1,0.1-0.2,0.1-0.3,0.2c-0.1,0-0.2,0-0.3,0c-0.4,0.2-0.8,0.3-1.3,0.5c-0.9,0.1-1.8,0.3-2.7,0.5
	c-1.1,0.1-1.1,0.1-2.6,0.1c-0.1,0-0.2-0.1-0.4-0.2c0-0.1,0-0.1,0-0.2c0.1-0.1,0.1-0.2,0.2-0.3c0.6-0.1,1.1-0.3,1.7-0.5
	c0.4-0.1,0.8-0.3,1.2-0.5c1.9-0.9,1.9-0.9,3.5-1.9c0.5-0.5,1-0.9,1.6-1.4c0.1-0.2,0.1-0.2,0.4-0.4c0.9-1.4,0.9-1.4,1.3-1.9
	c0.1-0.4,0.1-0.8,0.2-1.3c0-0.4,0-0.8,0-1.3c-0.1-0.2-0.1-0.3-0.2-0.4c-0.1-0.1-0.3-0.3-0.4-0.4c-0.3-0.1-0.3-0.1-0.7-0.2
	c-0.3,0-0.6,0-0.9,0c-0.1,0.1-0.2,0.1-0.4,0.2c-0.1,0-0.3,0.1-0.5,0.1c-0.8,0.4-0.8,0.4-1.4,0.9c-0.1,0.2-0.1,0.2-0.8,0.6
	c-1,1.1-1.5,1.7-2.4,2.8c-1.2,1.8-1.2,1.8-1.4,2.1c-0.3,0.6-0.6,1.2-0.9,1.8c-0.4,1.1-0.9,2.4-1.1,2.9c-0.1,0.5-0.2,1.1-0.4,1.6
	c0,0.3,0,0.6-0.1,0.9c0,0.5,0,1.1,0.1,1.6c0.1,0.2,0.2,0.4,0.3,0.6c0.2,0.3,0.4,0.5,0.5,0.8c0.2,0.1,0.4,0.2,0.6,0.3
	c0.3,0.1,0.6,0.2,0.9,0.3c0.6,0,1.2-0.1,1.8-0.1c0.8-0.2,1.4-0.5,2.1-0.7c0.3-0.1,0.6-0.3,0.9-0.5c0.2-0.1,0.4-0.3,0.7-0.5
	c0.1,0,0.2-0.1,0.4-0.1c0.6-0.4,1.2-0.9,1.9-1.3c0.1-0.2,1.3-1.1,2.4-2c0.5-0.6,1.1-1,1.5-1.6c0.2-0.2,0.5-0.4,0.7-0.6
	c0.2-0.3,0.5-0.6,0.7-0.9c0.1-0.1,0.2-0.1,0.3-0.2c0.3-0.4,0.6-0.7,0.9-1.1c0-0.1,0-0.2,0.1-0.3c0.3-0.5,0.6-1.1,0.9-1.6
	c0.3-0.4,0.6-0.8,0.9-1.3c0.5-0.6,1-1.1,1.4-1.7c0.2-0.2,0.5-0.4,0.7-0.6c0.2-0.2,0.3-0.3,0.5-0.5c0.4-0.3,0.8-0.6,1.1-1
	c0.4-0.2,0.4-0.2,1.5-0.9c0.6-0.2,0.9-0.5,1.6-0.7c0.1-0.1,0.3-0.1,0.4-0.2c0.4-0.1,0.8-0.2,1.2-0.3c0.6,0,1.3-0.1,1.9-0.1
	c0.6,0.1,0.6,0.1,0.9,0.2c0.1,0.1,0.1,0.1,0.7,0.3c0.2,0.2,0.4,0.4,0.6,0.5c0.1,0.2,0.3,0.5,0.4,0.7c0,0,0.1,0,0.1,0
	c0.2-0.4,0.4-0.8,0.6-1.3c0.1-0.2,0.1-0.2,0.4-0.3c2.7,0,2.7,0,2.8-0.1c1.7,0,1.7,0,1.8,0.1c0,0.1,0.1,0.2,0.1,0.3
	c-0.5,1.1-0.5,1.1-0.6,1.2c-0.1,0.3-0.2,0.6-0.3,0.9c-0.2,0.5-0.2,0.5-1.1,2.7c-0.1,0.4-0.2,0.6-0.9,2.3c0,0.1-0.1,0.1-0.1,0.2
	c0,0.1,0,0.2,0,0.3c-0.2,0.3-0.3,0.6-0.5,0.9c0,0.2-0.1,0.3-0.1,0.5c-0.1,0.2-0.2,0.3-0.3,0.5c0,0.1-0.1,0.3-0.1,0.4
	c-1.4,3.4-1.4,3.4-1.4,3.6c0,0.1-0.1,0.1-0.2,0.2c-0.5,1.8-0.5,1.8-0.7,2.2c0,0.3,0,0.3-0.1,0.4c0,0.4,0,0.8,0.1,1.2
	c0.1,0.1,0.2,0.1,0.3,0.2c0.1,0,0.3,0,0.4,0c0.2-0.1,0.4-0.1,0.6-0.2c0.2-0.1,0.4-0.3,0.7-0.5c0.5-0.5,1.1-1,1.7-1.5
	c0.1-0.2,0.3-0.4,0.5-0.6c0.3-0.2,0.5-0.4,0.8-0.6c0.1,0,0.2,0,0.3,0c0.1,0.1,0.1,0.1,0.2,0.2c0,0.1,0,0.2,0,0.4
	c-0.3,0.4-0.6,0.8-0.8,1.2c-0.3,0.4-0.6,0.8-1,1.2c-0.5,0.4-1,1-1.3,1.2c-0.1,0.1-0.2,0.2-0.3,0.3c-0.3,0.2-0.6,0.4-0.8,0.6
	c-0.6,0.2-0.6,0.2-0.9,0.5c-0.3,0.1-0.7,0.2-1.1,0.3C144.9,67.7,144.6,67.7,144.3,67.7z M25,74.3c-1-0.1-1.9-0.3-2.9-0.4
	c-0.5-0.2-1-0.4-1.5-0.6C20,73.2,20,73.2,19.5,73c-1.8-0.9-1.8-0.9-2.6-1.4c-0.2-0.2-0.4-0.3-0.6-0.5c0-0.1-0.1-0.1-0.1-0.2
	c-0.6-0.5-0.6-0.5-1.6-1.4c-0.4-0.6-0.9-1.2-1.3-1.9c-0.2-0.4-0.3-0.8-0.5-1.2c-0.1-0.7-0.3-1.3-0.4-2c0-0.5,0-1-0.1-1.6
	c0-0.6,0.1-1.2,0.2-1.8c0.1-0.3,0.1-0.7,0.2-1c0.1-0.2,0.3-0.9,0.8-2c0.2-0.4,0.5-0.8,0.8-1.3c0.3-0.3,0.6-0.7,1-1.1
	c0.5-0.5,0.5-0.5,1.6-1.2c0.3-0.1,0.6-0.3,0.9-0.5c0.4-0.1,0.8-0.3,1.2-0.5c0.8-0.2,1.6-0.3,2.4-0.5c0.5,0,1-0.1,1.5-0.1
	c0.5,0,1.1,0,1.6,0.1c0,0.1,0.1,0.1,0.1,0.2c0,0.1-0.1,0.1-0.1,0.2c-0.8,0.4-1.7,0.8-2.5,1.3c-0.5,0.5-0.5,0.5-0.9,0.7
	c-0.2,0.3-0.5,0.5-0.7,0.8c-0.1,0.1-0.2,0.2-0.4,0.3C19,57.4,19,57.4,18.6,58c-0.1,0.2-0.1,0.4-0.2,0.6c0,0-0.1,0.1-0.1,0.1
	c-0.2,0.6-0.4,1.2-0.7,1.8c-0.1,0.3-0.1,0.5-0.2,0.8c-0.1,0.6-0.1,1.3-0.2,1.9c0,0.5,0,1.1,0.1,1.6c0.1,0.6,0.2,1.1,0.3,1.7
	c0.3,0.7,0.3,0.7,0.4,1.2c0.1,0.1,0.2,0.2,0.3,0.3c0.1,0.3,0.3,0.5,0.4,0.7c0.3,0.3,0.5,0.7,0.8,1c0.3,0.2,0.3,0.2,0.8,0.7
	c0.7,0.5,1,0.6,1.1,0.7c0.6,0.2,1.2,0.5,1.8,0.7c0.3,0,0.3,0,0.9,0.2c0.8,0,0.8,0,1,0.1c0.7,0,1.4,0,2.2,0c0.2,0,0.5,0,0.7-0.1
	c0.6-0.2,1.3-0.3,2-0.5c0.5-0.1,0.9-0.3,1.4-0.5c0.5-0.3,1-0.6,1.5-1c0.3-0.2,0.7-0.5,1-0.8c0.2-0.2,0.4-0.4,0.6-0.6
	c0.1-0.2,0.1-0.3,0.2-0.5c0.2-0.3,0.4-0.6,0.6-0.8c0.1-0.3,0.1-0.5,0.2-0.8c0.1-0.2,0.2-0.3,0.3-0.5c0.2-1,0.2-1.4,0.3-1.9
	c0-0.4,0-0.7,0-1.1c-0.1-0.8-0.1-1.5-0.2-2.3c-0.2-0.7-0.5-1.4-0.6-2c-0.3-0.7-0.7-1.5-1.1-2.2c-0.8-1.4-1.1-1.7-2.7-4.2
	c-0.2-0.2-0.7-1.1-1.3-1.9C30.1,50,30.1,50,29,48.3c-0.3-0.8-0.4-1-0.7-1.8c-0.1-0.1-0.1-0.2-0.2-0.2c-0.2-0.9-0.3-1.9-0.5-2.8
	c0-0.7,0-1.4,0-2.1c0.1-0.8,0.2-1.1,0.3-2c0.2-0.7,0.4-1.4,0.6-2.1c0.4-0.7,0.8-1.5,1.1-2.2c0.2-0.3,0.5-0.6,1.5-2
	c0.3-0.2,0.3-0.2,0.5-0.5c0.2-0.1,0.3-0.2,0.5-0.3c0,0,0.1-0.1,0.1-0.2c0.6-0.5,0.6-0.5,2.1-1.4c0.3-0.1,0.6-0.3,0.9-0.5
	c1.2-0.5,1.2-0.5,2.3-0.8c0.6-0.1,0.6-0.1,0.7-0.2c0.7-0.1,1.5-0.2,2.2-0.3c0.6,0,1.2,0,1.8,0c0.5,0,1,0,1.5,0.1
	c0.2,0.1,0.9,0.2,1.9,0.4c1.4,0.5,1.4,0.5,1.9,0.7c0.3,0.2,0.5,0.3,0.8,0.5c0.4,0.3,0.8,0.6,1.2,1c0.3,0.4,0.7,0.9,1.1,1.4
	c0.2,0.4,0.3,0.8,0.5,1.2c0.1,0.3,0.1,0.5,0.2,0.8c0,0.5,0,1,0.1,1.5c0,0.2,0,0.5,0,0.8c-0.1,0.3-0.1,0.6-0.2,0.9
	c-0.2,0.4-0.3,0.7-0.5,1.1c-0.1,0.1-0.1,0.1-0.2,0.2c0,0,0,0.1,0,0.2c0.1,0,0.1,0,0.2,0c1.3-0.7,2.3-1.2,3.1-1.6
	c0.5-0.2,1-0.5,1.5-0.7c0.1,0,0.2-0.1,0.4-0.1c0.1-0.1,0.2-0.1,0.3-0.2c0.6-0.2,1-0.5,1.7-0.7c0.3-0.2,0.6-0.3,0.8-0.5
	c1.1-0.5,1.1-0.5,1.8-0.8c0.1,0,0.3-0.1,0.5-0.1c0.2-0.1,1.1-0.5,1.5-0.6c0.2-0.1,0.2-0.1,3.3-1.3c0.1,0,0.2,0,0.3-0.1
	c2.6-0.9,3.4-1.2,4-1.4c0.2,0,0.4-0.1,0.6-0.1c0.6-0.2,0.6-0.2,3-1c0.1,0,0.2,0,0.4-0.1c0.1,0,0.1-0.1,0.2-0.1
	c1.7-0.4,3.5-0.8,5.2-1.2c0.1-0.1,0.2-0.1,0.3-0.2c0.2,0,0.4,0,0.6,0c2.4-0.5,7.1-1.3,7.3-1.4c0.6-0.1,1.2-0.1,1.8-0.2
	c1-0.1,2-0.3,3-0.4c0.2,0,0.4,0,0.7,0c0.1,0,0.3-0.1,0.4-0.1c1.9-0.2,3.8-0.3,5.8-0.5c4.1-0.2,4.5-0.2,7.2-0.3c6.7,0,6.7,0,11.2,0.1
	c0.2,0,0.4,0,0.6,0.1c0.1,0,0.2,0,0.3-0.1c2.6,0.2,2.6,0.2,4.3,0.2c7.5,0.8,7.7,0.8,8.9,1c0.2,0.1,1.1,0.1,4.9,0.7
	c0.1,0.1,0.1,0.1,3.9,0.7c0.2,0.1,0.5,0.1,0.7,0.2c0.3,0,0.7,0.1,1,0.1c0.2,0.1,0.4,0.2,0.6,0.2c0.4,0.1,0.8,0.1,1.2,0.2
	c0.2,0.1,0.5,0.1,0.7,0.2c1.2,0.2,1.6,0.3,2.3,0.5c0.2,0.1,0.4,0.1,0.6,0.2c0.6,0.2,1.3,0.3,2,0.5c1.4,0.5,1.4,0.5,1.6,0.6
	c0.7,0.2,1.4,0.4,2.1,0.6c0.1,0,0.1,0.1,0.2,0.1c0.1,0,0.2,0,0.3,0.1c1.7,0.6,3.5,1.2,5.2,1.8c1.1,0.5,1.1,0.5,4.1,1.6
	c0.1,0,0.1,0.1,0.2,0.1c0.8,0.3,0.8,0.3,1.1,0.4c0.6,0.3,1.2,0.6,1.8,0.9c1.1,0.4,1.1,0.4,2.8,1.3c0.4,0.3,1.3,0.7,1.7,0.9
	c1.4,0.7,1.6,0.8,3.9,1.9c0.1,0.1,0.2,0.2,0.3,0.3c0.3,0.1,0.6,0.3,0.9,0.5c0.3,0.2,1.1,0.7,2.6,1.6c0.1,0.1,0.3,0.2,0.4,0.4
	c0,0.1,0,0.2,0,0.3c-0.1,0-0.2,0-0.3,0.1c-0.5-0.2-1.7-0.9-1.9-1c-0.3-0.2-0.7-0.5-1-0.7c-0.5-0.2-0.7-0.3-1.5-0.7
	c-0.1-0.1-0.2-0.2-0.4-0.2c-0.3-0.1-0.7-0.3-1-0.5c-0.1-0.1-0.2-0.1-0.3-0.2c-0.2-0.1-0.4-0.1-0.6-0.2c-0.3-0.2-0.6-0.3-0.9-0.5
	c-1.2-0.5-2.1-0.9-3.4-1.4c-0.3-0.1-0.6-0.3-0.9-0.5c-0.7-0.2-0.7-0.2-3.5-1.4c-0.8-0.2-1.6-0.5-2.4-0.8c-0.2-0.1-0.4-0.2-0.6-0.2
	c-0.2,0-0.4-0.1-0.6-0.1c-0.2-0.1-0.3-0.1-0.5-0.2c-0.8-0.2-1.7-0.5-2.5-0.7c-0.6-0.2-1.1-0.3-1.3-0.5c-1-0.2-1.3-0.3-2.4-0.6
	c-1.5-0.5-1.5-0.5-1.6-0.5c-1.7-0.3-3.3-0.7-5-1c-0.1,0-0.1-0.1-0.2-0.1c-1.6-0.2-1.6-0.2-2.7-0.4c-0.1,0-0.3,0-0.4,0
	c-0.1,0-0.1-0.1-0.2-0.1c-0.7-0.1-1.5-0.3-2.2-0.4c-0.1,0-0.2,0-0.3,0c-0.4-0.1-0.9-0.2-1.4-0.3c-0.5-0.1-1.1-0.1-1.7-0.2
	c-0.1-0.1-0.2-0.1-0.3-0.2c-0.7,0-0.9-0.1-4.7-0.5c-0.2,0-0.4-0.1-0.6-0.1c-1,0-1.2-0.1-3.8-0.3c-0.4,0-0.8,0-1.2-0.1
	c-0.7-0.1-1.4-0.2-2.1-0.2c-0.7,0-2.8-0.1-5.1-0.2c-0.8-0.1-1.6-0.1-2.4-0.2c-1.9,0-2.1,0-8.1-0.1c-0.4,0-0.7,0.1-1.1,0.1
	c-1.2,0-2.4,0-3.6-0.1c-0.1,0-0.1,0.1-0.2,0.1c-2.2,0.1-4.3,0.2-6.5,0.3c-0.3,0.1-2,0.1-3.5,0.3c-0.7,0.1-1.4,0.1-2,0.2
	c-0.1,0-0.1,0-0.1,0.1c-1.4,0.1-2.8,0.3-4.2,0.4c-0.5,0.1-1.1,0.2-1.7,0.3c-0.3,0-0.6,0-1,0.1c-0.1,0-0.1,0.1-0.2,0.1
	c-1.6,0.2-1.6,0.2-2,0.2c-0.2,0.1-0.3,0.1-0.5,0.2c-0.4,0-0.8,0.1-1.3,0.1c-3.4,0.7-3.4,0.7-4.9,0.9c-2.1,0.5-2.1,0.5-2.3,0.6
	c-0.3,0-0.5,0.1-0.8,0.1c-1.3,0.3-2.6,0.6-3.8,1c-0.5,0.1-1,0.3-1.5,0.5c-0.3,0.1-0.7,0.1-1.1,0.2c-0.1,0-0.2,0.1-0.3,0.1
	c-0.5,0.1-0.9,0.2-1.4,0.3c-0.3,0.1-0.5,0.2-0.8,0.4c-0.2,0-0.4,0.1-0.6,0.1c-0.7,0.2-0.9,0.3-2.4,0.8c-0.2,0.1-0.2,0.1-2.7,0.9
	c-1.1,0.5-1.8,0.7-2.3,0.9c-0.6,0.2-1.2,0.5-1.9,0.7c-1,0.5-1,0.5-1.6,0.7c-0.1,0.1-0.2,0.1-0.4,0.2c-1.1,0.5-2,1-2.6,1.2
	c-0.1,0.1-0.2,0.1-0.3,0.2c-0.2,0.1-0.4,0.1-0.6,0.2c-0.8,0.5-0.8,0.5-1.1,0.7c-0.2,0.1-0.3,0.1-0.5,0.2c0,0-0.1,0.1-0.2,0.2
	c-0.2,0.1-0.3,0.1-0.5,0.2c-0.1,0.1-0.1,0.1-0.2,0.2c-0.5,0.2-0.5,0.2-1.8,1.1c-0.1,0-0.1,0-0.2,0c-0.3-0.3-0.3-0.3-0.8-1.1
	c-0.5-1-0.5-1-1-1.8c-0.1-0.3-0.2-0.5-0.4-0.8c0,0,0-0.1,0-0.2c0,0,0.1-0.1,0.1-0.2c0.4-0.2,0.7-0.3,1.1-0.5
	c0.4-0.2,0.8-0.5,1.2-0.7c0.2-0.2,0.4-0.3,0.6-0.5c0.3-0.4,0.6-0.7,0.9-1.1c0.2-0.3,0.3-0.6,0.5-1c0.1-0.7,0.1-0.7,0.1-1.3
	c-0.1-0.4-0.2-0.7-0.3-1.1c-0.1-0.2-0.2-0.4-0.3-0.6c-0.3-0.4-0.5-0.8-0.8-1.1c-0.1-0.1-0.2-0.1-0.4-0.2c-0.1-0.1-0.1-0.2-0.3-0.3
	c-0.2-0.1-0.5-0.3-0.7-0.5c-0.3-0.1-0.5-0.2-0.8-0.3c-0.4-0.1-0.8-0.2-1.3-0.3c-1.5,0-1.5,0-2.6,0.1c-0.9,0.2-0.9,0.2-1.4,0.3
	c-0.6,0.2-0.9,0.5-1.4,0.7c-0.4,0.2-0.7,0.5-1.1,0.7c-0.4,0.3-0.7,0.6-1.1,1c-0.5,0.6-0.7,1.1-0.9,1.3c-0.2,0.5-0.3,1-0.5,1.5
	c0,0.5-0.1,0.6-0.2,1.8c0,0.5,0,1,0.1,1.6c0,0.1,0.1,0.2,0.1,0.3c0,0.2,0.1,0.4,0.1,0.6c0.3,0.8,0.7,1.6,1,2.4
	c0.9,1.6,1.2,1.9,1.5,2.5c0.7,1,1.4,2,2.1,2.9c0.1,0.3,0.7,1,1.2,1.8c0.2,0.2,0.3,0.5,0.5,0.7c0.3,0.6,0.3,0.6,0.8,1.5
	c0.5,1.2,0.5,1.2,1,2.6c0.1,0.6,0.3,1.1,0.4,1.7c0.1,0.6,0.1,0.9,0.2,1.6c0,0.1,0,0.1,0,3.2c-0.1,0.7-0.3,1.5-0.4,2.2
	c-0.1,0.4-0.3,0.9-0.4,1.4c-0.1,0.1-0.1,0.1-0.6,1.2c-0.3,0.3-0.7,1.1-1.4,2.1c-0.1,0.1-0.3,0.2-0.4,0.3c-0.1,0.1-0.1,0.3-0.2,0.4
	c-0.4,0.2-0.4,0.2-1,0.8c-0.1,0-0.2,0.1-0.3,0.1c-0.1,0.2-0.3,0.3-0.5,0.5c-0.6,0.5-0.6,0.5-1.7,1.2c-0.5,0.3-1,0.6-1.4,0.8
	c-0.5,0.2-1.1,0.4-1.6,0.6c-0.1,0.1-0.2,0.1-0.3,0.2c-1,0.2-1.9,0.4-3.2,0.7c-0.5,0-1,0.1-1.6,0.1C26.3,74.3,25.7,74.3,25,74.3z"/>
<g id="XMLID_91_" class="st2">
	<g id="XMLID_378_" class="st3">
		<path id="XMLID_421_" class="st0" d="M26.1,51.1v8H13.4v-3.2h9.6v-1.6h-9.6v-8h12.7v3.2h-9.5v1.6H26.1z"/>
		<path id="XMLID_419_" class="st0" d="M51,55.9h6.4v-9.5h3.2v12.7H47.8V46.4H51C51,46.4,51,55.9,51,55.9z"/>
		<path id="XMLID_417_" class="st0" d="M65.6,59.1h-3.2V46.4h12.7v12.7H72v-9.6h-6.4L65.6,59.1L65.6,59.1z"/>
		<path id="XMLID_414_" class="st0" d="M86.6,43.2h3.2v15.9H77V46.4h9.5V43.2z M86.6,55.9v-6.4h-6.4v6.4H86.6z"/>
		<path id="XMLID_412_" class="st0" d="M94.4,55.9h9.5v3.2H91.2V45.2h3.2V55.9z"/>
		<path id="XMLID_409_" class="st0" d="M105.4,59.1V46.4h12.7v12.7L105.4,59.1L105.4,59.1z M108.6,55.9h6.4v-6.4h-6.4V55.9z"/>
		<path id="XMLID_407_" class="st0" d="M122.9,49.5v6.4h6.4v-1.6h-4.8v-3.2h8v8h-12.7V46.4h12.7v3.2H122.9z"/>
		<path id="XMLID_405_" class="st0" d="M137.2,59.1H134V46.4h3.2V59.1z"/>
		<path id="XMLID_403_" class="st0" d="M141.8,49.5v6.4h9.5v3.2h-12.7V46.4h12.7v3.2H141.8z"/>
		<path id="XMLID_400_" class="st0" d="M152.8,46.6v1.1h-0.1v-1.1h-0.4v-0.1h0.8v0.1H152.8z M154.3,47.7v-1l-0.3,0.6h-0.1l-0.3-0.6
			v1h-0.1v-1.2h0.1l0.4,0.8l0.4-0.8h0.1v1.2H154.3z"/>
		<g id="XMLID_395_">
			<path id="XMLID_398_" class="st0" d="M175.7,60l-3.9-6.6L168,60h-1.3l4.5-7.6l-4.2-7.2h1.3l3.5,6.2l3.6-6.2h1.3l-4.2,7.2l4.6,7.6
				C177.1,60,175.7,60,175.7,60z"/>
			<path id="XMLID_396_" class="st0" d="M184.6,46.2V60h-1.1V46.2h-4.4v-1h10v1H184.6z"/>
		</g>
		<g id="XMLID_393_">
			<path id="XMLID_394_" class="st0" d="M37,50.7c-1,0-1.8,0.8-1.8,1.8c0,1,0.8,1.8,1.8,1.8c1,0,1.8-0.8,1.8-1.8
				C38.9,51.5,38,50.7,37,50.7z"/>
		</g>
		<path id="XMLID_389_" class="st0" d="M37,45.8c-3.7,0-6.7,3-6.7,6.7c0,3.7,3,6.7,6.7,6.7c3.7,0,6.7-3,6.7-6.7
			C43.7,48.8,40.7,45.8,37,45.8z M34.4,52.5c0-1.5,1.2-2.7,2.7-2.7c1.5,0,2.7,1.2,2.7,2.7c0,1.5-1.2,2.7-2.7,2.7
			C35.6,55.2,34.4,54,34.4,52.5z M39.1,58.4l-1.4-3c0.7-0.1,1.3-0.5,1.8-1.1l2.7,1.8C41.5,57.2,40.4,58,39.1,58.4z"/>
		<rect id="XMLID_388_" x="159.5" y="35.3" class="st0" width="0.4" height="34.9"/>
		<g id="XMLID_379_">
			<g id="XMLID_380_">
				<path id="XMLID_381_" class="st0" d="M37,42.6c-5.5,0-9.9,4.4-9.9,9.9c0,5.5,4.4,9.9,9.9,9.9c5.5,0,9.9-4.4,9.9-9.9
					C46.9,47,42.5,42.6,37,42.6z M43.5,46.4l0.2,0.2l0.2-0.2l0.1,0.1l-0.2,0.2l0.2,0.2L44,47l-0.2-0.2L43.6,47l-0.1-0.1l0.2-0.2
					l-0.2-0.2L43.5,46.4z M29.9,46.4l0.2-0.1l0.1,0.3l0.3-0.1l0.1,0.2l-0.3,0.1l0.1,0.3l-0.2,0.1l-0.1-0.3l-0.3,0.1l-0.1-0.2
					l0.3-0.1L29.9,46.4z M30.3,58.8l-0.2,0.1l-0.1-0.3l-0.3,0.1l-0.1-0.2l0.3-0.1l-0.1-0.3l0.2-0.1l0.1,0.3l0.3-0.1l0.1,0.2
					l-0.3,0.1L30.3,58.8z M44,58.7l-0.2-0.2l-0.2,0.2l-0.1-0.1l0.2-0.2l-0.2-0.2l0.1-0.1l0.2,0.2l0.2-0.2l0.1,0.1l-0.2,0.2l0.2,0.2
					L44,58.7z M37,60.6c-4.5,0-8.1-3.6-8.1-8.1c0-4.5,3.6-8.1,8.1-8.1c4.5,0,8.1,3.6,8.1,8.1C45.2,57,41.5,60.6,37,60.6z"/>
			</g>
		</g>
	</g>
</g>
<g id="XMLID_96_" class="st2">
	<g class="st3">
		<g>
			<path id="XMLID_90_" class="st4" d="M26.8,37.2h-1.2l-1.8,7.6h0.4l1.4-5.9h1.2c1.7,0,2.6,0.6,2.8,1.7
				C30,38.3,29.2,37.2,26.8,37.2z"/>
			<path id="XMLID_89_" class="st4" d="M35.9,40.8c-1.4,6.2-5.7,8.5-11.5,8.5h-1.7l-2.4,10.3h-5.9l-0.4,1.7h6.3L22.8,51h1.7
				c5.8,0,10-2.4,11.5-8.5c0.3-1.2,0.4-2.3,0.3-3.3C36.1,39.7,36.1,40.3,35.9,40.8z"/>
		</g>
		<g>
			<path id="XMLID_88_" class="st4" d="M47.4,36.9c-2,0-2.9,1.4-3.3,3.2l-2.8,12.1c-0.2,0.8-0.2,1.5-0.1,2c0-0.1,0-0.2,0.1-0.3
				l2.8-12.1c0.4-1.8,1.3-3.2,3.3-3.2c1.1,0,1.7,0.4,1.9,1.1C49.6,38.1,49.3,36.9,47.4,36.9z"/>
			<path id="XMLID_87_" class="st4" d="M55.2,41.4L53,51.1c-1.4,6-5.1,9-11.1,9c-4.4,0-6.6-1.6-7-4.9c-0.3,4.4,1.8,6.6,7,6.6
				c6,0,9.7-3,11.1-9l2.2-9.7c0.4-1.6,0.5-3,0.4-4.2C55.6,39.7,55.4,40.5,55.2,41.4z"/>
		</g>
		<g>
			<path id="XMLID_86_" class="st4" d="M61.5,53.1c0.2-0.7,0.5-1.4,0.7-2c0.2-1.1,0.3-2.1,0.4-3.1l1-13.6h-0.1l-0.9,11.9
				C62.4,48.5,62.1,50.8,61.5,53.1z"/>
			<path id="XMLID_85_" class="st4" d="M74.8,53c0.2-0.6,0.4-1.1,0.5-1.7c0.2-1.3,0.3-2.5,0.3-3.8l0.5-13.2h-0.1l-0.5,11.5
				C75.6,48.2,75.3,50.6,74.8,53z"/>
			<polygon id="XMLID_84_" class="st4" points="77.2,59.6 70.3,59.6 70.2,61.3 77.2,61.3 88.3,34.3 87.6,34.3 			"/>
			<path id="XMLID_83_" class="st4" d="M72,37.5c-0.7,2.3-1.4,4.7-2.4,6.9l-6.4,15.2h-6.8l-0.1,1.7h6.9l6.4-15.2
				c0.6-1.4,1.1-2.8,1.6-4.3C71.3,40.4,71.6,39,72,37.5z"/>
		</g>
		<g>
			<polygon id="XMLID_82_" class="st4" points="97.3,59.6 83.9,59.6 83.5,61.3 97.3,61.3 98.4,56.7 98,56.7 			"/>
			<polygon id="XMLID_81_" class="st4" points="98.9,48.1 92.5,48.1 90.9,55 91.3,55 92.5,49.8 98.9,49.8 100,45.1 99.6,45.1 			"/>
			<polygon id="XMLID_80_" class="st4" points="102.1,37.2 95,37.2 93.6,43.4 94,43.4 95,38.9 102.1,38.9 103.2,34.3 102.8,34.3 			
				"/>
		</g>
		<g>
			<polygon id="XMLID_79_" class="st4" points="111.3,59.6 109.6,48.6 108,48.6 105.4,59.6 99.5,59.6 99.1,61.3 105.4,61.3 
				108,50.3 109.6,50.3 111.3,61.3 117.8,61.3 117.5,59.6 			"/>
			<path id="XMLID_78_" class="st4" d="M111.6,37.2h-1l-1.7,7.2h0.4l1.3-5.5h1c1.6,0,2.6,0.5,3,1.6
				C115.1,38.1,113.9,37.2,111.6,37.2z"/>
			<path id="XMLID_77_" class="st4" d="M120.9,40.6c-0.7,2.9-2.4,5.3-5.4,6.9l0.3,1.5c2.7-1.5,4.4-3.9,5.1-6.7
				c0.3-1.3,0.4-2.4,0.3-3.3C121.1,39.5,121,40,120.9,40.6z"/>
		</g>
		<g>
			<path id="XMLID_76_" class="st4" d="M132.2,41.9c0-0.1,0.1-0.1,0.1-0.2c0-0.2,0-0.5,0-0.7C132.2,41.3,132.2,41.6,132.2,41.9z"/>
			<polygon id="XMLID_75_" class="st4" points="127.4,45.3 124.1,26.6 123.7,26.6 127.1,45.7 			"/>
			<path id="XMLID_73_" class="st4" d="M130.4,48.6c-0.5,1.3-1,2.5-1.8,3.7l-4.4,7.3h-5l-1.1,1.7h6.1l4.4-7.3
				c0.7-1.1,1.1-2.2,1.6-3.4C130.3,50,130.3,49.3,130.4,48.6z"/>
			<polygon id="XMLID_71_" class="st4" points="135.2,45.1 135.4,46.4 143.3,34.3 142.2,34.3 			"/>
			<path id="XMLID_70_" class="st4" d="M134.5,74.2l-4.2-21.9c0-0.2,0-0.3,0-0.5c0,0.7-0.1,1.5,0,2.2l4.2,21.9h6.5l-0.3-1.7
				L134.5,74.2L134.5,74.2z"/>
		</g>
		<g>
			<path id="XMLID_69_" class="st4" d="M151.5,36.9c-1.8,0-2.7,1.1-3.1,2.8l-2.9,12.4c-0.2,0.8-0.3,1.6-0.1,2.2
				c0-0.2,0.1-0.3,0.1-0.5l2.9-12.4c0.4-1.7,1.3-2.8,3.1-2.8c1,0,1.5,0.3,1.7,0.9C153.6,38,153.4,36.9,151.5,36.9z"/>
			<path id="XMLID_68_" class="st4" d="M159.3,40.3l-0.4,1.9h-5.8l-0.4,1.7h6.2l0.4-1.9c0.3-1.2,0.3-2.3,0.2-3.2
				C159.4,39.3,159.4,39.7,159.3,40.3z"/>
			<path id="XMLID_67_" class="st4" d="M145.9,60c-4.3,0-6.5-1.6-6.8-4.7c-0.4,4.3,1.8,6.4,6.8,6.4c6,0,9.5-2.5,11-8.6l0.4-1.5h-0.4
				C155.4,57.6,151.9,60,145.9,60z"/>
		</g>
		<g>
			<polygon id="XMLID_66_" class="st4" points="170.3,59.6 156.8,59.6 156.4,61.3 170.3,61.3 171.3,56.7 170.9,56.7 			"/>
			<polygon id="XMLID_65_" class="st4" points="171.8,48.1 165.4,48.1 163.8,55 164.2,55 165.4,49.8 171.8,49.8 172.9,45.1 
				172.5,45.1 			"/>
			<polygon id="XMLID_64_" class="st4" points="175,37.2 167.9,37.2 166.5,43.4 166.9,43.4 167.9,38.9 175,38.9 176.1,34.3 
				175.7,34.3 			"/>
		</g>
		<g>
			<polygon id="XMLID_63_" class="st4" points="184,34.3 179.2,55 179.6,55 184.4,34.3 			"/>
			<polygon id="XMLID_62_" class="st4" points="185.3,59.6 172.2,59.6 171.8,61.3 185.3,61.3 186.4,56.7 186,56.7 			"/>
		</g>
	</g>
	<g class="st3">
		<path d="M23.9,48.5h-1.7l-2.4,10.3h-6.3l6.3-27h8.1c5.5,0,8.8,2.3,7.5,8.2C33.9,46.1,29.7,48.5,23.9,48.5z M26.3,36.3h-1.2
			l-1.8,7.6h0.8c2.6,0,4.3-1.2,4.9-3.8C29.6,37.6,28.8,36.3,26.3,36.3z"/>
		<path d="M41.3,59.2c-6,0-8-3-6.6-9l2.2-9.7c1.5-6.3,4.8-9.2,11.1-9.2c6.1,0,7.9,3.3,6.5,9.2l-2.2,9.7C51,56.2,47.3,59.2,41.3,59.2
			z M48.7,39.2c0.4-1.8,0.2-3.2-1.8-3.2c-2,0-2.9,1.4-3.3,3.2l-2.8,12.1c-0.4,1.8-0.1,3.1,1.8,3.1c1.9,0,2.9-1.3,3.3-3.1L48.7,39.2z
			"/>
		<path d="M76.7,58.8h-7l0.6-15.1c0.1-2.3,0.6-4.7,1.1-7C70.7,39,70,41.3,69,43.6l-6.4,15.2h-6.9l1.4-27h6l-1,13.6
			c-0.2,2.3-0.5,4.6-1.1,6.9c0.8-2.3,1.6-4.6,2.5-6.9l5.6-13.6h6.6l-0.5,13.2c-0.1,2.4-0.4,4.8-0.9,7.2c0.7-2.5,1.6-4.9,2.5-7.4
			l5-13.1h6L76.7,58.8z"/>
		<path d="M82.9,58.8l6.3-27h13.4l-1.1,4.6h-7.1L93,42.6h6.4l-1.1,4.6h-6.4l-1.6,6.9h7.5l-1.1,4.6C96.7,58.8,82.9,58.8,82.9,58.8z"
			/>
		<path d="M110.8,58.8l-1.8-11h-1.6l-2.6,11h-6.3l6.3-27h8.1c5.5,0,8.8,2.1,7.4,8c-0.7,2.9-2.4,5.3-5.4,6.8l2.3,12.2
			C117.2,58.8,110.8,58.8,110.8,58.8z M111.1,36.4h-1l-1.7,7.2h1c2.4,0,4-1.3,4.6-3.7C114.6,37.3,113.4,36.4,111.1,36.4z"/>
		
			<linearGradient id="SVGID_1_" gradientUnits="userSpaceOnUse" x1="130.159" y1="73.6905" x2="130.159" y2="35.7933" gradientTransform="matrix(1 0 0 -1 0 101.28)">
			<stop  offset="0" style="stop-color:#8BC53F"/>
			<stop  offset="1" style="stop-color:#BED630"/>
		</linearGradient>
		<path class="st5" d="M134,73.4l-4.2-21.9c-0.2-1.2,0-2.5,0.1-3.7c-0.5,1.3-1,2.5-1.8,3.7l-4.4,7.3h-6.1l9.3-14.3l-3.6-20.4h6.6
			l1.8,13.8c0.1,1,0.1,2.1,0,3.2c1.4-3.2,3.3-6.3,5-9.4h6.1l-8.2,12.5l5.9,29.1L134,73.4L134,73.4z"/>
		
			<linearGradient id="SVGID_2_" gradientUnits="userSpaceOnUse" x1="148.7322" y1="73.691" x2="148.7322" y2="35.7927" gradientTransform="matrix(1 0 0 -1 0 101.28)">
			<stop  offset="0" style="stop-color:#8BC53F"/>
			<stop  offset="1" style="stop-color:#BED630"/>
		</linearGradient>
		<path class="st6" d="M145.3,59.2c-5.9,0-7.8-2.9-6.5-8.7l2.4-10.3c1.3-5.7,4.9-8.9,10.7-8.9c5.2,0,8,2.8,6.7,8.1l-0.4,1.9h-6.2
			l0.5-2.3C153,37.4,153,36,151,36c-1.8,0-2.7,1.1-3.1,2.8L145,51.2c-0.4,1.8-0.3,3.2,1.7,3.2c2.2,0,2.7-1.3,3.1-3.2l0.5-2.3h6.3
			l-0.4,1.5C154.9,56.7,151.4,59.2,145.3,59.2z"/>
		
			<linearGradient id="SVGID_3_" gradientUnits="userSpaceOnUse" x1="165.707" y1="73.6893" x2="165.707" y2="35.7936" gradientTransform="matrix(1 0 0 -1 0 101.28)">
			<stop  offset="0" style="stop-color:#8BC53F"/>
			<stop  offset="1" style="stop-color:#BED630"/>
		</linearGradient>
		<path class="st7" d="M155.9,58.8l6.3-27h13.4l-1.1,4.6h-7.1l-1.4,6.2h6.4l-1.1,4.6h-6.4l-1.6,6.9h7.5l-1.1,4.6
			C169.7,58.8,155.9,58.8,155.9,58.8z"/>
		
			<linearGradient id="SVGID_4_" gradientUnits="userSpaceOnUse" x1="178.563" y1="73.6893" x2="178.563" y2="35.7936" gradientTransform="matrix(1 0 0 -1 0 101.28)">
			<stop  offset="0" style="stop-color:#8BC53F"/>
			<stop  offset="1" style="stop-color:#BED630"/>
		</linearGradient>
		<path class="st8" d="M171.3,58.8l6.3-27h6.3l-5.2,22.4h7.2l-1.1,4.6C184.8,58.8,171.3,58.8,171.3,58.8z"/>
	</g>
</g>
<image style="display:none;overflow:visible;enable-background:new    ;" width="300" height="300" id="XMLID_92_" xlink:href="CB4C9E8DDE987455.jpeg"  transform="matrix(0.23 0 0 0.23 65.5 15.5)">
</image>
</svg>
