<?xml version="1.1" encoding="UTF-8" standalone="no"?>
<svg version="1.1" id="图层_1" xmlns="http://www.w3.org/2000/svg" xmlns:xlink="http://www.w3.org/1999/xlink" x="0px" y="0px" viewBox="0 0 256 256" style="enable-background:new 0 0 256 256;" xml:space="preserve">
<style type="text/css">
    .st0{fill:#1895D3;}
    .st1{fill:#FCFDFD;}
    .st2{font-family:'Hero';}
    .st3{font-size:33.4444px;}
    .st4{fill:#FFFFFF;}
</style>
<g>
    <path id="XMLID_148_" class="st0" d="M128,0.1c70.7,0,128,57.3,128,128s-57.3,128-128,128S0,198.8,0,128.1S57.3,0.1,128,0.1"></path>
    <text id="XMLID_152_" transform="matrix(1 0 0 1 62.6875 225.5156)" class="st1 st2 st3">Kitchen</text>
    <g id="TMtCaZ.tif">
        <g>
            <path class="st4" d="M50.4,45.4c1.4-4.7,3.1-5.2,6.6-1.7c9.1,9,18.1,18.1,27.2,27.1c1,1,1.9,3.8,4.1,1.8c2.6-2.4-0.7-3.4-1.7-4.5
                c-8.8-9-17.8-17.9-26.8-26.9c-1.7-1.7-4.2-3.7-1.5-6.1c2.3-2.1,4.1,0,5.8,1.7c9,9.1,18.1,18.2,27.2,27.1c1,1,1.9,3.8,4.2,1.5
                c2.2-2.2-0.6-3.1-1.6-4.1c-9-9.1-18.1-18.1-27.1-27.2c-1.6-1.6-4-3.4-1.7-5.7c2.5-2.5,4.4-0.2,6.1,1.5
                c8.9,8.9,17.8,17.9,26.9,26.8c1.1,1.1,2,4.3,4.5,1.7c2.2-2.3-0.7-3.1-1.7-4.1c-8.9-9-17.8-17.9-26.8-26.9
                c-1.7-1.7-4.3-3.6-1.6-6.1c2.2-2,4.1-0.1,5.8,1.6c10.3,10.4,20.7,20.7,31,31c4.1,4.1,7.3,8.8,8.7,14.6c0.6,2.4,0.6,4.8,0.2,7.3
                c-0.3,2.2-3.2,4.1-1.6,6.2c2.2,3,5.2,5.5,7.9,8.1c1.3,1.3,2-0.1,2.8-0.8c2.2-2.2,4.3-4.5,6.7-6.6c1.8-1.6,2.1-3.1,1.6-5.6
                c-6.2-29.4,14.4-46.8,36.6-51c13.1-2.5,21.5,3.8,23.5,17.2c1.6,10.9-3.1,19.7-9.3,28.1c-9.6,13-22.7,18.1-38.3,15.5
                c-6.8-1.1-10.4,2.3-14.1,6.6c-2.2,2.6-0.1,4.2,1.5,5.8c10.3,10.4,20.7,20.6,30.9,31c4.3,4.5,8.8,8.1,15.2,9.2c5,0.9,8.9,4,11,9
                c2.9,6.9,0.4,12.3-6.8,14.1c-1.3,0-2.6,0-3.9,0c-7.3-1.1-11-5.9-12.5-12.6c-0.9-4.4-3.1-7.8-6.2-10.9
                c-11.3-11.1-22.6-22.4-33.7-33.7c-2.9-2.9-4.8-2.9-7.6,0c-11.6,11.8-23.4,23.5-35.1,35.2c-1.9,1.9-3.3,4-3.8,6.7
                c-0.1,0.3-0.2,0.6-0.2,1c-1.7,8.3-5.9,14-15.2,14.4c-0.7,0-1.3,0-2,0c-4.5-1-7.4-3.7-7.8-8.3c-0.5-5.2,2-9.2,6.1-12.2
                c2.5-1.8,5.4-3.2,8.6-3.6c4.2-0.6,7.2-2.8,10-5.7c11-11.1,22.1-22.1,33-33.2c1.5-1.5,4.5-3.1,2.2-5.6c-2.2-2.5-4-6.9-8.4-5.7
                c-11,3.1-19.2-1.7-26.5-8.9C72.9,70,63.3,60.3,53.6,50.6C52.2,49.1,50.2,47.9,50.4,45.4z"></path>
        </g>
    </g>
    <path class="st4" d="M129.8,148.5c0.5,1,0.8,2.1,0.9,3.2c-10.8,8.7-21.5,8.7-32.3-0.1c-0.2-1.2,0.2-2.2,1.1-3.1
        C109.6,148.5,119.7,148.5,129.8,148.5z"></path>
</g>
</svg>