<?xml version="1.1" encoding="UTF-8" standalone="no"?>
<svg version="1.1" id="图层_1" xmlns="http://www.w3.org/2000/svg" xmlns:xlink="http://www.w3.org/1999/xlink" x="0px" y="0px" viewBox="0 0 256 256" style="enable-background:new 0 0 256 256;" xml:space="preserve">
<style type="text/css">
    .st0{fill:#1895D3;}
    .st1{fill:#FCFDFD;}
    .st2{font-family:'Hero';}
    .st3{font-size:33.4444px;}
    .st4{fill:#FFFFFF;}
    .st5{fill:#009FE8;}
    .st6{fill:#DADADA;}
    .st7{fill:#C8C8C8;}
    .st8{fill:#B3B3B3;}
    .st9{fill:#C1C0C0;}
</style>
<path id="XMLID_163_" class="st0" d="M0,128C0,57.3,57.3,0,128,0"></path>
<path id="XMLID_146_" class="st0" d="M128,0c70.7,0,128,57.3,128,128s-57.3,128-128,128S0,198.7,0,128"></path>
<text id="XMLID_141_" transform="matrix(1 0 0 1 62.1969 218.9479)" class="st1 st2 st3">Lifestyle</text>
<g id="ro9DBJ.tif">
    <g>
        <path class="st4" d="M110.4,158.1c-4-1.3-8.3-1.6-12.3-2.6c-1.7-0.4-2.1,1.8-3.6,1.5c-1.5-0.3,0.5-2.3-1.5-2.8
            c-2.8-0.6-4.8-2.9-5.9-5.4c-1.9-4.1-5-7.2-7.8-10.6c-7.7-9.1-15.4-18.1-23.2-27c-1.9-2.1-2.1-3.9-0.4-6.4
            c10.3-14.8,20.5-29.6,30.7-44.4c3.6-5.3,9-7,15-7.1c3.2-0.1,6.4,0,9.7,0c3.5,0,4.9-1,5.9-4.4c1-3.1,1.3-6.3,0.8-9.5
            c-0.1-0.9-0.5-2,1-2c1.3,0,0.9,1.1,1,1.9c0.2,4,0.4,7.9-1.5,11.6c-0.6,1.1-1.2,2.5-2.2,3.1c-2.9,1.6-1.9,3.4-0.8,5.4
            c4,7.7,11.4,11.3,18.4,8.7c5.3-2,8.3-6.1,10.3-11.2c0.4-0.9,0-1.5-0.7-2.1c-5.1-4.4-5-10.3-4.5-16.2c0.1-0.6,0.1-1.4,1.1-1.2
            c0.8,0.2,0.9,0.7,0.8,1.5c-0.2,3.1-0.5,6.3,0.5,9.3c1.6,4.8,2.7,5.4,6.7,5.2c4.1-0.1,8.3-0.3,12.4,0.3c4.7,0.6,8.6,2.7,11.3,6.6
            c10.3,14.8,20.6,29.7,30.9,44.6c0.6,0.8,1.1,1.6,1.7,2.4c0,0.6,0,1.1,0,1.7c-1.1,3-3.5,4.9-5.5,7.1c-8,9.1-15.7,18.5-23.6,27.6
            c-1.1,1.3-2,2.6-2.7,4.1c-1.2,2.4-2.9,4.4-5.1,6.1c-2.2,1.7-4,3.1-7.6,2.6c-3.7-0.5-7.9,0.9-11.8,1.5c-0.7,0-1.5,0-2.2,0
            c-1.1-0.5-2.2-1-3.3-1.3c-2.4-0.6-3.2-2-3.3-4.4c-0.1-3.5,0.5-4.6,3.9-5.7c1.1-0.4,2.3-0.6,3.4-1c1-0.4,2.1-0.6,3.6-1
            c-2.2,0-3.7,1-5.4,1.2c-1.5,0.2-3.1,0.2-3.7-1.5c-0.6-1.7,0.5-2.8,1.9-3.5c2.4-1.1,4.7-2.6,7.5-2.6c1.7,0,2-0.7,1.8-2.2
            c-0.5-3.6-0.6-7.3-0.7-11c-0.1-4.2,0.3-8.4,0.8-12.6c0.2-2-0.4-2.7-2.3-2.7c-13.9,0-27.8,0-41.6,0c-2.1,0-2.8,0.9-2.5,2.9
            c1.1,7.9,1.4,15.7,0.1,23.6c-0.3,1.5,0.3,1.9,1.7,1.9c3.1,0.1,5.6,1.6,8.2,3c1.2,0.7,2.1,1.7,1.6,3.2c-0.6,1.6-2,1.7-3.4,1.6
            c-2.1-0.2-3.9-1.5-6.4-1.3c3.3,0.5,6.1,1.5,8.9,2.6c1.7,0.7,3,1.9,2.7,4c-0.3,2.2,0,4.8-3.2,5.3c-1.2,0.2-2.2,0.8-3.3,1.4
            C111.9,158.1,111.1,158.1,110.4,158.1z"></path>
        <path class="st4" d="M112.6,158.1c1-1.3,1.8-2.6,3.8-2.3c0.4,0.1,1.1-0.4,1.4-0.7c1.7-2.1,0.4-6.6-2.3-7.4
            c-2.6-0.8-5.3-1.5-7.9-2.3c-0.6-0.2-1.2-0.4-1.8-0.7c2.7-1.6,5-0.2,7.4,0.4c1.4,0.4,3.1,1.1,3.7-0.9c0.6-1.8-1.1-2.3-2.3-2.8
            c-2.8-1.2-5.4-3.1-8.8-2.2c-1.6,0.4-0.9-0.9-0.8-1.6c0.5-3.6,1-7.3,1-11c0-5.2-0.3-10.3-1-15.4c-0.2-1.7,0-2.3,2-2.3
            c14.8,0.1,29.6,0.1,44.4,0c1.8,0,2.3,0.4,2,2.3c-1.2,8.8-1.6,17.6,0,26.3c0.2,1.2,0.3,2-1.4,1.6c-3.9-0.9-6.8,1.6-10,3
            c-0.8,0.4-1,1.3-0.6,2.2c0.3,0.9,1.1,1.2,2,1.1c1.2-0.2,2.3-0.5,3.4-1c1.8-0.6,3.5-1,5.5,0.1c-2.2,1.3-4.8,1.4-7.1,2.3
            c-1.3,0.5-2.7,0.8-3.9,1.4c-1.2,0.6-2.2,1.6-1.4,3.1c0.4,0.8,0.2,1.3,0.1,2c-0.2,1.2,0.4,2.5,1.6,2.4c2.1-0.3,3,1.2,4.2,2.3
            C134.7,158.1,123.6,158.1,112.6,158.1z"></path>
        <path class="st4" d="M105.8,154.9c-3.3-0.5-6.5-1-9.8-1.5c-3.7-0.6-6.2-2.9-7.7-6.1c-1.2-2.5-2.9-4.6-4.7-6.7
            c-8.6-10.1-17.3-20.3-26-30.3c-1.4-1.6-1.5-2.7-0.3-4.5c10-14.3,19.9-28.6,29.8-43c3.4-4.9,7.8-7.2,13.7-7.3c6.7-0.1,6.7,0,6,6.8
            C106,70,103,76.9,99,84c-0.6-1.8-1-3.2-1.6-4.6c-0.3-0.8-0.1-2.1-1.2-2.3c-1.1-0.2-1.5,0.9-2,1.6c-6.3,7.6-12.6,15.3-18.9,23
            c-1.3,1.6-2.7,3.3-4,4.9c-1.5,1.8-1.7,3.7-0.3,5.5c7.3,9.7,14.7,19.3,22,28.9c1.1,1.4,2.4,1.8,4.1,1.5c3.1-0.6,6.2-1,9.2-1.4
            c1.4-0.2,2.8-0.5,4.2,0.9c-3.1-0.3-5.8,1-8.5,1.6c-0.6,0.1-1.4,0.3-1.5,1c-0.1,0.9,0.8,1.1,1.5,1.3c4,1.1,7.9,2.2,11.9,3.3
            c0.9,0.2,1.7,0.5,2.8,1.5c-4.1-0.4-7.4-1.4-10.7-2.2c-0.9-0.2-1.7-0.6-2.6-0.7c-0.9-0.2-2.3-1-2.7,0.2c-0.4,1.4,1.2,1.4,2,1.6
            c3.4,1,6.9,1.9,10.3,2.9c0.9,0.2,1.7,0.5,2.5,1.1c-3.8-0.1-7.4-1.3-11.1-1.9c-1.3-0.2-3.5-1.8-3.9,0c-0.5,2.1,2.3,1.2,3.5,1.9
            c0.9,0.5,1.9,0.5,2.9,0.7C107.1,155.4,106.4,155,105.8,154.9z"></path>
        <path class="st4" d="M144.6,152.7c3.7-1,7.4-2,11.1-3.1c0.7-0.2,1.9-0.2,1.6-1.4c-0.3-1.2-1.4-0.6-2.1-0.4
            c-3.4,0.8-6.8,1.7-10.1,2.5c-1,0.2-2,0.7-3.6,0.2c3.4-1.7,6.8-2.2,9.9-3.2c1.7-0.5,3.4-0.9,5-1.4c0.5-0.2,1.1-0.4,1.2-1
            c0.1-0.8-0.7-1-1.3-1.1c-3-0.7-5.8-2.2-9.8-1.3c3.2-1.5,3.4-1.5,5.7-1.2c3,0.5,6,0.8,9,1.4c1.7,0.3,3-0.1,4.1-1.5
            c7.3-9.6,14.5-19.2,21.8-28.7c1.5-2,1.3-3.9-0.2-5.7c-7.8-9.4-15.5-18.9-23.3-28.3c-1.2-1.5-2.1-1.8-2.6,0.5
            c-0.4,1.7-1.1,3.3-1.8,5.3c-4.9-8.7-8.5-17.3-7.9-27.1c0-0.8,0.1-1.5,1.2-1.5c3.8,0.1,7.7-0.5,11.4,1.2c2.6,1.1,4.7,2.7,6.4,5
            c10.2,14.7,20.3,29.5,30.6,44.1c1.3,1.8,1,2.9-0.3,4.5c-9.4,10.9-18.8,21.9-28.1,32.9c-0.4,0.5-1,0.9-1.2,1.5
            c-2.5,7.8-8.9,9.2-15.9,9.6c-0.7,0.1-1.5,0.7-1.8-0.5c1-0.2,2-0.4,2.9-0.7c0.7-0.2,1.6-0.4,1.4-1.3c-0.2-0.9-1.1-0.8-1.8-0.7
            c-3.2,0.7-6.4,1.4-9.6,2.1C145.7,153.3,144.9,154,144.6,152.7z"></path>
        <path class="st5" d="M95.7,80.4c0.9,3.2,2.2,6,1.2,9.6c-1.1,3.7,0.5,7.3,2.2,10.6c6.2,12.2,5.2,25,3.6,38c-0.1,0.4-0.2,1-0.5,1.2
            c-1.7,1.5-7.3,0.8-8.7-1c-6.8-8.9-13.5-17.9-20.3-26.8c-1.1-1.5-1.6-2.7-0.2-4.3c7.4-8.8,14.6-17.7,21.9-26.6
            C95,80.8,95.2,80.7,95.7,80.4z"></path>
        <path class="st5" d="M162.5,80c6.2,7.6,12.1,14.7,18,21.9c1.5,1.8,3,3.7,4.6,5.5c1.2,1.4,1.4,2.6,0.2,4.2c-7,9.2-14,18.5-21,27.7
            c-2.1,2.8-4.9,0.8-7.4,0.7c-2,0-1.5-1.9-1.7-2.9c-1.5-9.4-1-18.9,0.5-28.3c0.3-2,1.1-3.8,2.1-5.7c2.6-5,5-10,3-16
            C160.1,85,161.8,82.7,162.5,80z"></path>
        <path class="st6" d="M153.4,153.8c0.4,0.6,1.2,0.3,1.8,0.5c-1.7,0.6-3.3,1.1-5.5,0.9C150.9,153.9,152.2,154,153.4,153.8z"></path>
        <path class="st7" d="M105.8,154.9c0.4-0.2,0.8-0.4,1.2-0.6c1.2,0.2,2.3,0.5,3.5,0.7c0,0.3-0.1,0.5-0.1,0.8
            C108.8,155.8,107.3,155.5,105.8,154.9z"></path>
        <path class="st8" d="M144.6,152.7c0.4,0.7,1.2,0.2,1.7,0.5c-1.3,0.9-2.8,0.4-4.6,1.3C142.6,152.9,143.7,152.9,144.6,152.7z"></path>
        <path class="st9" d="M149.3,155.8c-1.1,0.1-1.9,0.2-2.8,0.3C147.2,155.1,148,154.6,149.3,155.8z"></path>
        <path class="st5" d="M132.2,138.2c-0.2,0.3-0.4,0.8-0.7,1.1c-0.9,0.7-1,1.4-0.1,2.2c0.6,0.5,1.1,1.1,0.3,1.8
            c-0.6,0.5-1.2,0.1-1.6-0.4c-0.7-0.9-1.4-1-2.2,0c-0.5,0.6-1.2,1-1.9,0.3c-0.6-0.7,0-1.2,0.5-1.6c1.1-0.9,0.9-1.6-0.1-2.4
            c-0.5-0.4-1-1-0.3-1.6c0.6-0.7,1.2-0.3,1.6,0.2c0.9,1.2,1.7,1,2.6,0C131.1,136.9,131.8,137,132.2,138.2z"></path>
    </g>
</g>
</svg>