<?xml version="1.0" encoding="utf-8"?>
<!-- Generator: Adobe Illustrator 23.1.1, SVG Export Plug-In . SVG Version: 6.00 Build 0)  -->
<svg version="1.1" id="图层_1" xmlns="http://www.w3.org/2000/svg" xmlns:xlink="http://www.w3.org/1999/xlink" x="0px" y="0px"
     viewBox="0 0 252.6 97.4" style="enable-background:new 0 0 252.6 97.4;" xml:space="preserve">
<style type="text/css">
    .st0{enable-background:new    ;}
    .st1{fill:#231815;}
    .st2{fill:#FC0606;stroke:#000000;stroke-width:25;stroke-miterlimit:100;}
    .st3{fill-rule:evenodd;clip-rule:evenodd;fill:#FFFFFF;}
    .st4{fill:#F90303;}
    .st5{fill:#FC0606;}
    .st6{font-family:'Impact';}
    .st7{font-size:48.0489px;}
    .st8{fill:#FBFBFB;}
</style>
<g id="椭圆_4_1_" class="st0">
</g>
<g id="椭圆_3_1_" class="st0">
</g>
<g id="_x3C_文字_x3E_">
</g>
<g id="椭圆_1_1_" class="st0">
</g>
<path class="st1" d="M132,24.1"/>
<g id="椭圆_3_拷贝_12_xA0_图像_3_">
    <circle class="st2" cx="48.2" cy="47.7" r="33.3"/>
</g>
<g id="矩形_1_拷贝_9_6_" class="st0">
    <g id="矩形_1_拷贝_9_7_">
        <g>
            <rect x="22.1" y="81.2" class="st3" width="118" height="14"/>
        </g>
        <g>
            <polygon points="140.1,81.2 22.1,81.2 22.1,95.2 140.1,95.2          "/>
        </g>
    </g>
</g>
<g id="M_拷贝_7_xA0_图像_4_">
    <g>
        <path class="st4" d="M122.8,62.6c-0.6,0.1-0.8,0.5-1.1,0.8c-8.6,8.4-17.1,16.8-25.6,25.2c-0.4,0.4-0.8,0.6-1.4,0.8
            c-2.3,0.5-4.5,1.1-6.8,1.6c-0.5,0.1-1,0.3-1.4-0.4c-2.8-5-5.8-10-7.6-15.5c-0.5-1.5-0.9-3.1-1.3-4.7c-0.5,0.1-0.5,0.6-0.7,0.9
            c-3.1,7.4-6.8,14.6-10.1,21.8c-0.2,0.5-0.5,0.9-1.2,0.8c-2.5-0.2-5-0.7-7.3-1.5c-0.7-0.2-0.9-0.5-0.5-1.2
            c4.4-8.5,8.8-16.9,13.2-25.4c0.3-0.6,0.6-0.8,1.3-0.6c3.6,0.7,7.3,0.7,11,0.3c0.5-0.1,1-0.1,1.3,0.5c2,3.9,4.4,7.6,6.5,11.5
            c1,1.8,1.8,3.8,2.5,5.7c0.4,1.1,0.5,1.1,1.2,0.3c7.4-8.8,15.8-16.5,24-24.4c0.7-0.6,1.4-1,2.3-1c3.4-0.3,6.8-0.3,10.2,0.1
            c1,0.1,1.3,0.4,1.1,1.5c-1.5,7.2-3,14.5-4.4,21.7c-0.4,1.8-0.7,3.6-1,5.5c-0.1,0.8-0.4,1-1.2,0.7c-2.4-0.8-4.9-1.2-7.4-1.3
            c-0.9,0-1.1-0.2-0.9-1.1c1.7-7.3,2.9-14.6,5.2-21.7C122.7,63.2,122.8,63,122.8,62.6z"/>
    </g>
</g>
<g id="LIBRA_2_">
    <text transform="matrix(1.002 0 0 1 140.314 94.0286)" class="st5 st6 st7">LIBRA</text>
    <text transform="matrix(1.002 0 0 1 140.314 94.0286)" class="st5 st6 st7">LIBRA</text>
</g>
<circle class="st8" cx="74.9" cy="22.9" r="5.9"/>
</svg>
