<?xml version="1.0" encoding="utf-8"?>
<!-- Generator: Adobe Illustrator 23.1.1, SVG Export Plug-In . SVG Version: 6.00 Build 0)  -->
<svg version="1.1" id="_x37C_" xmlns="http://www.w3.org/2000/svg" xmlns:xlink="http://www.w3.org/1999/xlink" x="0px" y="0px"
     viewBox="0 0 547 250.4" style="enable-background:new 0 0 547 250.4;" xml:space="preserve">
<style type="text/css">
    .st0{fill-rule:evenodd;clip-rule:evenodd;fill:#425BA8;}
</style>
<path class="st0" d="M126.1,3.8c53.4,0,98.6,34.7,114.5,82.7c1.7,5,0.9,10.1-2.2,14.4c-3.1,4.3-7.7,6.6-13,6.6h-0.5
    c-7.1,0-13.1-4.4-15.3-11.1c-11.5-35.8-45-61.7-84.6-61.7c-49.1,0-88.9,39.8-88.9,88.9c0,49.1,39.8,88.9,88.9,88.9
    c14,0,38.2-3.8,39.8,11.6c2.2,21.4-24.3,20.9-38.7,20.9C59.5,245,5.5,191,5.5,124.4C5.5,57.8,59.5,3.8,126.1,3.8z"/>
<path class="st0" d="M125,67.3c31.1,0,56.3,25.2,56.3,56.3c0,5.2-0.7,10.2-2,15l-39.2-13c0.5-2.5,0.3-5.1-0.5-7.7
    c-2.6-8.3-11.6-12.9-19.9-10.3c-8.3,2.6-12.9,11.6-10.3,19.9c2.6,8.3,11.6,12.9,19.9,10.3c3.1-1,5.7-2.9,7.6-5.2l39.9,13.3
    c-8.6,20.1-28.6,34.1-51.8,34.1c-31.1,0-56.3-25.2-56.3-56.3C68.7,92.5,93.9,67.3,125,67.3z"/>
<path class="st0" d="M249.9,142v102.5h-12.2v-85.7l-11.8,85.7h-12.8l-11.4-85.8l-0.2,85.8h-12.2V142h19l11.3,81l11.3-81H249.9
    L249.9,142z M280.3,142v84h31v18.6h-44.1V142H280.3L280.3,142z M337.2,142v102.5h-13V142H337.2L337.2,142z M354.2,244.5V142h30.3
    c6.8,0,11.9,3.1,15.3,9.1c2.6,4.7,3.9,10.4,3.9,17.1c0,6.4-0.9,11.4-2.8,15.1c-1,2.1-2.7,4-4.9,5.8c3.5,2.2,6.1,5.6,7.7,10.3
    c1.3,4,2,8.9,2,14.6c0,4.1-0.5,8-1.4,11.6c-0.9,3.6-2.3,6.8-4,9.6c-2,3.2-4.1,5.5-6.3,6.7c-3.1,1.7-7.5,2.6-13.4,2.6H354.2
    L354.2,244.5z M366.7,199.3v27.5h16c3.2,0,5.7-1.2,7.4-3.6c1.7-2.4,2.6-6.2,2.6-11.4c0-4.2-0.9-7.3-2.7-9.4c-1.8-2.1-4-3.1-6.7-3.1
    H366.7L366.7,199.3z M366.7,159.7V182H382c2.8,0,5-0.9,6.5-2.6c1.8-2,2.7-4.9,2.7-8.8c0-4-0.8-6.8-2.4-8.5c-1.6-1.6-4-2.5-7.1-2.5
    H366.7L366.7,159.7z M421.8,244.5V142h31.6c5.7,0,10.2,2.2,13.5,6.7c4.1,5.5,6.2,12.9,6.2,22.3c0,5.7-0.9,10.8-2.6,15.2
    c-1.7,4.4-4.1,7.5-7.1,9.2c3,2.2,4.9,4.6,5.9,7.2c1.3,3.6,2,9.9,2,18.9c0,8.1,0.1,13.3,0.4,15.7c0.3,2.4,1.1,4,2.4,4.7v2.7h-14.4
    c-0.5-2.8-0.8-5.6-1-8.4c-0.2-2.9-0.3-7-0.3-12.3c0-7.8-0.5-12.8-1.4-15c-1.3-3-4.2-4.4-8.8-4.4h-13.5v40.2H421.8L421.8,244.5z
     M434.6,187h15.3c3.5,0,6-1.1,7.7-3.2c1.6-2.1,2.4-5.7,2.4-10.8c0-3.5-0.6-6.4-1.7-8.7c-1.6-3.1-4.1-4.7-7.5-4.7h-16.3V187
    L434.6,187z M502.6,223.3l-4.3,21.2h-13.7L506.9,142H522l21.8,102.5h-14.2l-4-21.2H502.6L502.6,223.3z M506.1,205.6H522l-7.7-40.5
    L506.1,205.6z"/>
</svg>
