<?xml version="1.1" encoding="UTF-8" standalone="no"?>
<svg version="1.0" id="图层_1" xmlns="http://www.w3.org/2000/svg" xmlns:xlink="http://www.w3.org/1999/xlink" x="0px" y="0px" viewBox="0 0 256 256" style="enable-background:new 0 0 256 256;" xml:space="preserve">
<style type="text/css">
    .st0{fill:#1895D3;}
    .st1{fill:#FCFDFD;}
    .st2{font-family:'Hero';}
    .st3{font-size:33.4444px;}
    .st4{fill:#FFFFFF;}
</style>
<g>
    <path id="XMLID_149_" class="st0" d="M128,0c70.7,0,128,57.3,128,128s-57.3,128-128,128S0,198.7,0,128S57.3,0,128,0"></path>
    <text id="XMLID_153_" transform="matrix(1 0 0 1 68.1462 224.5963)" class="st1 st2 st3">Nutrition</text>
    <g>
        <path class="st4" d="M229.3,137.7c-7.6-11.3-14.9-21.9-22-32.6c-1.1-1.6-2.4-1.4-3.8-1.4c-2.7,0-5.4,0-8.1,0c-0.9,0-2,0.3-2-1.2
            c0-1.5,1-1.3,1.9-1.3c2.8,0,5.6,0,9.2,0c-4.7-7-9.1-13.3-13.4-19.7c-0.8-1.2-2.2-0.8-3.3-0.8c-6.1,0-12.1,0.1-18.2-0.1
            c-1.6,0-4.5,1.4-4.5-1.4c0-2.4,2.8-1.1,4.3-1.2c6.2-0.2,12.4-0.1,18.6-0.1c0.6-1.4-0.6-2-1.1-2.8c-4.3-6.5-8.7-12.9-13-19.4
            c-1.2-1.8-2.5-2.8-4.9-2.7c-6.2,0.2-12.4,0.1-18.6,0c-1.8,0-3,0.4-4,2c-4.6,7-9.3,13.8-13.9,20.7c-0.3,0.5-1.9,1.5-0.3,2
            c1.2,0.4,2,0.7,1.6,2.1c-0.2,0.8-1,0.7-1.7,0.7c-1.2,0-2.6,0.3-3.1-1.2c-0.5-1.4-0.7-2.7,0.3-4.2c10.2-14.9,20.2-29.8,30.6-45.1
            c24.9,36.8,49.6,73.3,74.3,109.7c-0.7,1.4-1.8,0.8-2.6,0.8c-37.1,0-74.3,0-111.4,0c-0.8,0-1.6,0-2.4,0c-0.8,0-1.1-0.6-1.1-1.4
            c0-0.9,0.2-1.6,1.3-1.6c1.1,0,2.2,0,3.2,0C157,137.7,192.8,137.7,229.3,137.7z"></path>
        <path class="st4" d="M156.7,124c1.6-2.1-1.6-5.4,2.5-6.8c3.3-1.2,3.1,2.2,5.1,2.9c0.3-2.3-0.4-4.8,3.2-5.7
            c3.3-0.9,3.8,1.6,5.8,3.5c-0.6-4,0.4-6.2,4.2-6.2c3.7,0,6.3,1.5,7.3,5c1,3.6-0.1,6.7-3.6,8c-6.3,2.4-12.7,4.3-19,6.4
            c-2.5,0.8-5.1,1.8-7.7,2.4c-3.9,0.9-7.6-1.3-8.6-4.9c-1-3.4,0.9-6.9,4.4-8.5C154.6,118.1,154.5,122.7,156.7,124z"></path>
        <path class="st4" d="M190.6,95.5c0,6-4.9,11-11,11.1c-6.2,0.2-11.3-4.9-11.3-11.1c0-6,5-11.3,10.9-11
            C186.5,84.8,190.3,89.2,190.6,95.5z"></path>
        <path class="st4" d="M160.2,73.2c1.9,5.4,0.1,10-3.3,14.1c-3.9,4.8-9.7,5-14.4,0.6c-4.8-4.5-5-10.1-0.5-14.4
            c4.2-3.9,9.2-5.2,14.9-3.7C159,70.1,160,71.3,160.2,73.2z"></path>
        <path class="st4" d="M198.3,115.8c5.3-1.2,9,0.8,10.6,5.8c1.6,4.9,0.2,7.9-4.9,10.2c-1.8,0.8-3,2.6-5.3,2.7c-4,0.2-8-2.8-9.2-7.1
            c-1.1-4.3,0.1-6.7,4.6-8.9c0.4-0.2,0.6-0.8,0.9-1.2c0.1-0.1,0.2-0.3,0.3-0.4C196.1,116.1,197.4,116.3,198.3,115.8z"></path>
        <path class="st4" d="M141.6,118.8c1.2-2,1.4-3.6-0.8-5.4c-4.1-3.5-4-3.7-7.8-1.8c-0.8-2.6,1.5-2.9,2.9-3.6c3.3-1.8,6.9-3,9.1-6.3
            c0.2-0.3,0.7-0.5,0.8-0.9c1.8-7.2,4.1-1.3,6-0.1c0.9,0.5,1.6,1.4,2.3,2.2c0.8,1,1,2-0.6,2.4c-3.8,0.9-5.5,3.8-6.9,7
            c-1.2,2.7-2.1,5.5-4.1,7.7C141.8,120,141.3,119.7,141.6,118.8z"></path>
        <path class="st4" d="M158,68.9c0.7-1.9,2.4-2.8,3.6-4.2c1.3-1.4,2.7-2.4,1.6-4.7c-0.7-1.5,0.6-2.8,2-3.5c1.6-0.8,3.1-0.2,3.9,1
            c0.9,1.5,1.6,2.8,3.4,3.5c1.2,0.4,1.6,1.8,1.4,3.1c-0.3,1.5-1.5,2.9-2.6,2.6c-4.6-1.3-6.2,2.5-8.8,4.7c-0.4,0.3-0.9,0.5-1.3,0.8
            C159.6,71.6,158.7,70.3,158,68.9z"></path>
        <path class="st4" d="M196.6,111c1.6-1.4,3.1-2.8,4.6-4.2c2.3,3.5,1.8,4.8-3.7,8.3C195.3,114.2,196.5,112.4,196.6,111z"></path>
        <path class="st4" d="M141.6,118.8c0.3,0.4,0.6,0.7,1,1.1c-3.3,5.6-8.4,9.4-12.9,13.9c-0.5-0.3-0.5-0.7-0.1-1.2
            C133.6,128,137.6,123.4,141.6,118.8z"></path>
        <path class="st4" d="M162.9,103.9c-1.5-0.9-4.5,1.1-4.5-1.5c0-2.4,3-1.2,4.6-1.2c1.5,0,4.5-1.4,4.4,1.2
            C167.4,105,164.4,103,162.9,103.9z"></path>
        <path class="st4" d="M135.9,103.8c-1.1-0.5-3.2,0.9-3.1-1.4c0.1-2.3,2-1.1,3.1-1.2c1.1,0,3.1-1,3.2,1.1
            C139.2,104.9,136.9,103.2,135.9,103.8z"></path>
        <path class="st4" d="M129.6,132.6c0,0.4,0.1,0.8,0.1,1.2c-1.5,2.9-2.4,3.1-5.8,0.9C126.1,134.5,128.2,134.3,129.6,132.6z"></path>
        <path class="st4" d="M195.1,117.4c-1.6-0.6-3.3-1.2-4.9-1.9c-0.6-0.2-1.1-0.8-0.7-1.6c0.4-0.8,1-0.5,1.6-0.2c1.3,0.7,2.7,1.4,4,2
            C195.6,116.4,195.5,116.9,195.1,117.4L195.1,117.4z"></path>
        <path class="st4" d="M195,117.5c0-0.6,0-1.1,0.1-1.7c1.6-1.3-0.4-3.7,1.5-4.9c0.1,1.4-0.9,3.1,0.9,4.1c0.3,0.2,0.5,0.5,0.8,0.7
            C197.6,117.1,196.3,117.3,195,117.5z"></path>
        <path class="st4" d="M158,68.9c1.6,0.6,2.5,1.9,3.2,3.3c-0.3,0.3-0.6,0.7-1,1c-1.1-1.1-2.1-2.2-3.2-3.4
            C157.3,69.5,157.6,69.2,158,68.9z"></path>
        <path class="st4" d="M159.9,35.2c3.4,5.1,6.7,9.8,10.1,14.9c-6.8,0-13.3,0-20.2,0C153.2,45.2,156.5,40.4,159.9,35.2z"></path>
        <path class="st4" d="M184.1,87.8c-0.2,0.9-0.9,1.3-1.7,1.3c-0.9-0.1-1.9-0.5-2.1-1.5c-0.3-1.1,0.7-1.4,1.4-1.4
            C182.8,86.1,183.7,86.6,184.1,87.8z"></path>
        <path class="st4" d="M143.6,81.9c-1-0.1-1.5-0.6-1.4-1.6c0.1-0.9,0.7-1.5,1.6-1.5c0.9,0,1.4,0.7,1.4,1.6
            C145.1,81.5,144.6,82,143.6,81.9z"></path>
        <path class="st4" d="M149,75.2c-0.2,1.2-0.8,1.7-1.6,1.7c-1.1,0-1.7-0.8-1.5-1.8c0.1-0.8,0.8-1.3,1.7-1.2
            C148.5,74,148.8,74.6,149,75.2z"></path>
        <path class="st4" d="M152.6,72.8c0.9,0,1.6,0.4,1.6,1.3c0.1,0.9-0.5,1.5-1.4,1.5c-0.9,0.1-1.5-0.3-1.6-1.3
            C151.2,73.4,151.7,72.9,152.6,72.8z"></path>
        <g>
            <path class="st4" d="M62.2,67.6c5-6.5,11-10.5,19.7-8.2c-0.4,2.1-2.3,0.5-3.2,1.4c-0.3,0.1-0.5,0.1-0.7,0.3
                c-1,0.9-2.3,1.3-3.6,1.7c0.5,0,1-0.3,1.5-0.3c2.1-0.8,4.3-0.3,6.3-0.1c3,0.3,1.5,2.7,1.5,4.3c-0.5,4.3-1.2,8.5-2.7,12.6
                c-0.7,1.8-0.3,2.5,1.5,3.3c2.2,0.9,2.2-0.7,2.6-1.8c1.6-5,2.7-10.1,2.8-15.4c0.1-2.5,1-3.1,3.4-3c4.7,0.2,9.4,0.1,14.1,0
                c6.2-0.1,10.8,2.7,14.3,7.6c5.5,7.8,7.1,16.7,8.1,25.9c1,9.2,1.1,18.5,0.3,27.8c-0.4,4.4-2.5,6.6-6.2,6.3
                c-3.3-0.2-5.4-2.8-5.1-6.9c0.8-11.9,0.6-23.7-1.8-35.4c-0.4-2.1-1.2-4-2.5-6c-0.1,1.3-0.2,2.7-0.2,4c0,32.7,0,65.4,0,98.1
                c0,7.8-5.2,12-11.8,9.8c-3.6-1.2-5.7-4.5-5.7-9.2c0-19.4,0-38.8,0-58.2c0-0.8,0-1.6,0-2.4c0-1,0.3-2.1-1.5-2.2
                c-1.9-0.1-1.8,1-1.8,2.3c0,0.8,0,1.6,0,2.4c0,19.2,0,38.5,0,57.7c0,6-3.5,10.1-8.6,10.2c-5.4,0-9-3.9-9-10.2
                c0-21.1,0-42.3,0-63.4c0-1.4,0.4-2.9-1.3-4.4c0,3.3,0,6.6,0,9.9c0,4.6-0.2,4.8-4.3,2.6c-9.6-5.2-15.2-13.4-17.1-24"></path>
            <path class="st4" d="M89.8,26.8c2.3,0,4.6,0,6.9,0c8,1.9,13.3,9.1,12.4,16.8c-1,8.4-7.5,14.3-15.7,14.4
                c-8.2,0.1-15.1-6.1-16.1-14.5C76.5,35.8,81.8,28.6,89.8,26.8z"></path>
            <path class="st4" d="M73.8,62.4c1.2-1,2.7-1.3,4.2-1.4c0.7,0.8,1.7,0.5,2.6,0.5c4.2,0.2,4.5,0.6,3.2,5c0.7-4.1-1.4-4.9-4.9-4.2
                c-1.4,0.3-2.8,0.6-4.2,0.9C74.3,63,73.8,62.9,73.8,62.4z"></path>
            <path class="st4" d="M78.7,60.8c0.8-1.1,2.5-0.1,3.2-1.4c2.1-0.4,3.9,0.7,5.8,1.4C84.7,60.8,81.7,60.8,78.7,60.8z"></path>
            <path class="st4" d="M77,87.4c0.5-3.7,2.1-4.6,5.6-2.8c5,2.5,10.3,4.6,15.5,6.6c2,0.8,2.3,1.6,1.5,3.5
                c-3.4,7.7-6.6,15.5-9.9,23.3c-0.7,1.7-1.4,2.2-3.2,1.3c-5.6-2.5-11.3-4.9-17-7.2c-2.1-0.8-2.8-1.7-1.5-3.8
                c0.9-1.5,1.6-3.1,0.4-4.8c-0.2-0.7,0-0.8,0.6-0.6c3.1,3.1,6.2,6.3,9.8,8.8c3.3,2.2,6.5,2,8.6-0.6c2-2.5,1.5-5.8-1.7-8.3
                c-4.2-3.3-8.5-6.5-10.2-12C74.4,89,76.3,88.4,77,87.4z"></path>
            <path class="st4" d="M77,87.4c-0.5,1.2-1,2.3-1.5,3.5c-2.5-5.7-1.9-10.7,1.6-13.8L77,77c-0.5,2.4-1.1,4.7-1.3,7.1
                C75.6,85.2,74.6,87.1,77,87.4z"></path>
            <path class="st4" d="M63.5,91.4c0.7,1.6,1.7,3.1,1.3,5.2c-1.9-0.6-1.9-2.2-2.1-3.5"></path>
            <path class="st4" d="M63.5,74.6c0.4-1.6,1-3.1,2.2-4.2c0.5,0.1,0.6,0.5,0.7,1c-0.7,1.4-1.4,2.8-2.1,4.2
                C63.7,75.5,63.7,75,63.5,74.6"></path>
            <path class="st4" d="M66.4,71.4c-0.2-0.3-0.5-0.6-0.7-1c0.4-1.3,1-2.3,2.4-3.1C68.3,69.1,67.1,70.1,66.4,71.4z"></path>
            <path class="st4" d="M66.6,101.3c-1.1-0.8-1.6-1.7-1.6-3.3c1.9,0.3,2.2,1.5,2.3,2.8C67.5,101.4,67.3,101.6,66.6,101.3z"></path>
            <path class="st4" d="M63.5,74.6c0.3,0.3,0.5,0.6,0.8,0.9c-1.6,0.9,0.2,3.2-1.7,4"></path>
            <path class="st4" d="M73.8,62.4c0.3,0.3,0.6,0.5,0.9,0.8c-0.9,0.6-1.7,1.2-2.9,0.8C71.9,62.8,72.8,62.7,73.8,62.4z"></path>
            <path class="st4" d="M66.6,101.3c0.2-0.2,0.4-0.4,0.7-0.6c1,0.4,1.5,1.2,1.7,2.2c-0.2,0.2-0.4,0.4-0.6,0.6
                C67.2,103.2,66.8,102.3,66.6,101.3z"></path>
            <path class="st4" d="M77.1,77.1c-0.2-1.6,0.9-2.4,2.2-3.3C79.7,75.9,78.7,76.7,77.1,77.1L77.1,77.1z"></path>
            <path class="st4" d="M88.4,94c-2.6-0.8-5.1-1.6-7.7-2.5c-0.5-0.2-1.3-0.6-1-1.4c0.3-0.9,0.9-0.9,1.8-0.4c2.8,1.4,6,1.7,8.6,3.5
                C89.7,93.9,88.9,93.5,88.4,94z"></path>
            <path class="st4" d="M87.6,95.7c2.2,0.2,3.7,1.8,6,2.8c-3.2,1.1-5-0.9-7.1-1.8C86.6,96,87.2,95.9,87.6,95.7z"></path>
            <path class="st4" d="M87.6,95.7c-0.4,0.3-0.7,0.6-1.1,0.9c-1.5-0.6-3-1.2-4.5-1.8c-0.1-0.7,0-1.2,0.9-0.8
                C84.6,94,86.1,94.8,87.6,95.7z"></path>
            <path class="st4" d="M88.4,94c0.4-0.7,1-0.7,1.7-0.8c1.8-0.1,2.7,2,4.5,1.9C92.2,96.7,90.4,94.9,88.4,94z"></path>
            <path class="st4" d="M82.9,94c-0.3,0.3-0.6,0.5-0.9,0.8c-1.3-0.2-2.5-0.4-3.5-2C80.5,91.9,81.6,93.2,82.9,94z"></path>
        </g>
    </g>
</g>
</svg>