<?xml version="1.0" standalone="no"?><!DOCTYPE svg PUBLIC "-//W3C//DTD SVG 1.1//EN" "http://www.w3.org/Graphics/SVG/1.1/DTD/svg11.dtd"><svg class="icon" width="200px" height="200.00px" viewBox="0 0 1024 1024" version="1.1" xmlns="http://www.w3.org/2000/svg"><path fill="#bfbfbf" d="M508.586667 20.48c136.533333 0 252.586667 47.786667 348.16 143.36S1000.106667 375.466667 1000.106667 512c0 135.168-47.786667 250.88-143.36 347.136S645.12 1003.52 508.586667 1003.52c-136.533333 0-252.586667-48.128-348.16-144.384S17.066667 647.168 17.066667 512c0-136.533333 47.786667-252.586667 143.36-348.16s211.626667-143.36 348.16-143.36z m32.768 606.208c55.978667 5.461333 99.669333-16.384 131.072-65.536s43.008-104.448 34.816-165.888c-6.826667-49.152-32.085333-86.698667-75.776-112.64s-93.525333-35.498667-149.504-28.672c-45.056 5.461333-84.992 24.576-119.808 57.344s-52.906667 73.045333-54.272 120.832c-2.730667 68.266667 21.162667 107.861333 71.68 118.784 6.826667-16.384 9.898667-27.648 9.216-33.792s-4.096-14.336-10.24-24.576-9.898667-19.456-11.264-27.648c-9.557333-65.536 17.066667-114.688 79.872-147.456s116.736-26.624 161.792 18.432c32.768 32.768 39.594667 83.285333 20.48 151.552S576.853333 585.045333 529.066667 575.488c-27.306667-5.461333-38.570667-23.893333-33.792-55.296s12.970667-60.757333 24.576-88.064c11.605333-27.306667 4.437333-47.786667-21.504-61.44-28.672-12.288-50.858667-1.024-66.56 33.792s-15.36 65.194667 1.024 91.136c-2.730667 13.653333-9.898667 41.984-21.504 84.992s-17.749333 72.704-18.432 89.088c-0.682667 16.384-0.341333 49.834667 1.024 100.352 35.498667-25.941333 62.122667-84.650667 79.872-176.128 31.402667 20.48 53.930667 31.402667 67.584 32.768z" /></svg>