<?xml version="1.0" standalone="no"?><!DOCTYPE svg PUBLIC "-//W3C//DTD SVG 1.1//EN" "http://www.w3.org/Graphics/SVG/1.1/DTD/svg11.dtd"><svg t="1607594924696" class="icon" viewBox="0 0 1024 1024" version="1.1" xmlns="http://www.w3.org/2000/svg" p-id="8742" xmlns:xlink="http://www.w3.org/1999/xlink" width="200" height="200"><defs><style type="text/css"></style></defs><path d="M0 0" p-id="8743"></path><path d="M129.2288 535.483733L232.106667 202.4448l102.775466 333.0048H129.2288v0.034133z m662.8352-333.038933l102.775467 333.0048H689.220267l102.843733-333.0048z" p-id="8744"></path><path d="M523.912533 819.9168c85.981867 10.683733 152.894578 86.152533 152.894578 174.865067 0 11.844267-9.557333 18.5344-21.333333 18.5344H358.1952c-11.741867 0-21.333333-6.690133-21.333333-18.5344 0-88.712533 67.003733-164.215467 152.917333-174.865067V368.605867c-36.693333-9.591467-64-42.734933-64-82.3296 0-39.765333 27.409067-72.942933 64.273067-82.397867-0.068267-0.4096-0.273067-0.785067-0.273067-1.194667v-42.666666H260.9152l117.691733 377.0368c0.3072 0.807822 0.136533-1.570133 0.238934-1.570134h6.075733c11.810133 0 21.333333 12.731733 21.333333 24.530489 0 96.0512-78.165333 177.470578-174.216533 177.470578-96.085333 0-174.250667-80.361244-174.250667-176.401067 0-11.821511 9.5232-25.6 21.333334-25.6h6.007466c0.170667 0 0 2.423467 0.3072 1.604267l117.691734-377.070933h-12.014934c-11.810133 0-21.333333-5.256533-21.333333-17.066667s9.5232-17.066667 21.333333-17.066667h298.666667v-93.866666c0-11.810133 5.256533-21.333333 17.066667-21.333334s17.066667 9.557333 17.066666 21.333334v93.866666h307.2c11.810133 0 21.333333 5.256533 21.333334 17.066667s-9.5232 17.066667-21.333334 17.066667h-10.205866l117.691733 377.0368c0.3072 0.807822 0.136533-1.615644 0.238933-1.615645h6.064356c11.810133 0 21.333333 12.731733 21.333333 24.576 0 96.017067-78.153956 177.470578-174.227911 177.470578-96.039822 0-174.216533-80.361244-174.216533-176.401067 0-11.844267 9.5232-25.6 21.333333-25.6h6.007467c0.170667 0 0 2.423467 0.3072 1.570134l117.691733-377.0368H523.946667v42.666666c0 0.4096 1.9456 0.785067 1.877333 1.194667 36.864 9.454933 66.389333 42.632533 66.389333 82.397867 0 39.594667-34.133333 72.738133-68.266666 82.3296l-0.034134 451.310933z" p-id="8745"></path></svg>