<?xml version="1.1" encoding="UTF-8" standalone="no"?>
<svg version="1.1" id="图层_1" xmlns="http://www.w3.org/2000/svg" xmlns:xlink="http://www.w3.org/1999/xlink" x="0px" y="0px" viewBox="0 0 256 256" style="enable-background:new 0 0 256 256;" xml:space="preserve">
<style type="text/css">
    .st0{fill:#1895D3;}
    .st1{fill:#FCFDFD;}
    .st2{font-family:'Hero';}
    .st3{font-size:33.4444px;}
    .st4{clip-path:url(#XMLID_2_);fill:#FFFFFF;}
</style>
<g id="XMLID_61_">
    <path id="XMLID_427_" class="st0" d="M256.5,128.3c0,70.7-57.3,128-128,128s-128-57.3-128-128s57.3-128,128-128
        c8.6,0,17,0.9,25.2,2.5c14.4,2.9,27.9,8.2,40.1,15.4C231.3,40.5,256.5,81.5,256.5,128.3z"></path>
    <text id="XMLID_426_" transform="matrix(1 0 0 1 51.4375 227.3867)" class="st1 st2 st3">Sense On</text>
    <g id="XMLID_421_">
        <defs>
            <path id="XMLID_422_" d="M24.8,113.9c0,48.8,32.7,89.8,77.4,102.5h58.2c37-10.5,65.8-40.4,74.6-78.1V89.5
                C224,42.4,181.7,7.4,131.3,7.4C72.4,7.4,24.8,55.1,24.8,113.9"></path>
        </defs>
        <clipPath id="XMLID_2_">
            <use xlink:href="#XMLID_422_" style="overflow:visible;"></use>
        </clipPath>
        <path class="st4" d="M218.3,63.5l1.1-7.4l-46-42.8l-19.7,52c-18.1,46.2-23.5,63.4-30.5,76.6c-6.3,16.3-21.1,13.3-21.1,13.3
            s-10.3-2.1-10.3,3.3c0,4.1,4.4,7.4,6.5,8.7H43.2c-3.8,0,2.7,8,2.7,8H103v9.1h37.5v-9.1h17.3v-8h-23.5
            c11.4-4.5,23.9-31.4,37.8-46.4c10.6-13.9,42,0.3,53.1-19C234,79.2,217.4,75.2,218.3,63.5z"></path>
    </g>
</g>
</svg>