<?xml version="1.1" encoding="UTF-8" standalone="no"?>
<svg version="1.1" id="图层_1" xmlns="http://www.w3.org/2000/svg" xmlns:xlink="http://www.w3.org/1999/xlink" x="0px" y="0px" viewBox="0 0 256 256" style="enable-background:new 0 0 256 256;" xml:space="preserve">
<style type="text/css">
    .st0{fill:#1895D3;}
    .st1{fill:#FCFDFD;}
    .st2{font-family:'Hero';}
    .st3{font-size:34.735px;}
    .st4{font-family:'Hero-Light';}
    .st5{font-size:27.788px;}
    .st6{fill:#FFFFFF;}
</style>
<g>
    <path id="XMLID_150_" class="st0" d="M128.3,0c70.7,0,128,57.3,128,128s-57.3,128-128,128s-128-57.3-128-128S57.6,0,128.3,0"></path>
    <text transform="matrix(1 0 0 1 78.421 201.0751)" class="st1 st2 st3">Super</text>
    <text transform="matrix(1 0 0 1 98.521 228.8751)" class="st1 st4 st5">Slim</text>
    <g id="Tpmj7U.tif">
        <g>
            <path class="st6" d="M122.6,21.8c0-0.3-0.1-0.6-0.1-0.9c3.9,0,7.8,0,11.6,0c0,0.3-0.1,0.6-0.1,0.9
                C130.2,23.3,126.4,23.2,122.6,21.8z"></path>
            <path class="st6" d="M122.5,165c0.1-0.3,0.1-0.6,0.2-0.9c3.8-1.5,7.5-1.5,11.3,0c0.1,0.3,0.1,0.6,0.2,0.9
                C130.3,165,126.4,165,122.5,165z"></path>
            <path class="st6" d="M41,96.6c-0.2,0-0.5,0-0.7,0c0-2.4,0-4.9,0-7.3c0.3,0,0.5,0,0.8,0.1C42.5,91.8,42.5,94.2,41,96.6z"></path>
            <path class="st6" d="M216.4,96.6c-0.2,0-0.5,0-0.7,0c-1.5-2.4-1.5-4.8-0.1-7.2c0.3,0,0.5,0,0.8-0.1
                C216.4,91.7,216.4,94.2,216.4,96.6z"></path>
            <path class="st6" d="M215.6,89.4c0,2.4,0.1,4.8,0.1,7.2c-1,0.1-1.9,0.2-2.9,0.2c-56.3,0-112.6,0-168.9,0c-1,0-1.9-0.1-2.9-0.2
                c0-2.4,0.1-4.8,0.1-7.2c43.2,0,86.3-0.1,129.5-0.1C185.6,89.3,200.6,89.4,215.6,89.4z"></path>
            <path class="st6" d="M122.6,21.8c3.8-0.3,7.6-0.3,11.4,0c0,11.4,0.1,22.8-0.1,34.1c0,2.8,0.8,3.6,3.5,3.3c2.4-0.2,4.8,0,8.2,0
                c-4.2,4.2-7.9,7.9-11.6,11.6c-5.7,5.7-5.7,5.7-11.3,0c-3.7-3.7-7.3-7.3-11.7-11.7c3.2,0,5.5-0.2,7.8,0.1c3,0.3,3.9-0.6,3.9-3.7
                C122.5,44.3,122.6,33.1,122.6,21.8z"></path>
            <path class="st6" d="M134,164.2c-3.8,0-7.5,0-11.3,0c0-11.4-0.1-22.8,0-34.2c0-2.4-0.6-3.2-3-3c-2.5,0.2-5.1,0-7.9,0
                c0.4-1.9,2-2.7,3.1-3.9c3.9-4,7.8-7.9,11.8-11.8c0.7-0.6,1.2-2.1,2.6-0.8c5.3,5.3,10.6,10.5,16.5,16.5c-3.6,0-6.2,0.2-8.8,0
                c-2.4-0.2-3,0.6-3,3C134.1,141.4,134,152.8,134,164.2z"></path>
        </g>
    </g>
</g>
</svg>