<?xml version="1.1" encoding="UTF-8" standalone="no"?>
<svg version="1.1" id="图层_1" xmlns="http://www.w3.org/2000/svg" xmlns:xlink="http://www.w3.org/1999/xlink" x="0px" y="0px" viewBox="0 0 256 256" style="enable-background:new 0 0 256 256;" xml:space="preserve">
<style type="text/css">
    .st0{fill:#1895D3;}
    .st1{fill:#FFFFFF;}
    .st2{font-family:'Hero';}
    .st3{font-size:36.0048px;}
    .st4{letter-spacing:1;}
    .st5{font-family:'Hero-Light';}
    .st6{font-size:29.4584px;}
    .st7{font-size:25.435px;}
    .st8{fill:#00ACA8;}
    .st9{font-size:25.4824px;}
</style>
<g id="XMLID_104_">
    <path id="XMLID_129_" class="st0" d="M128.3,255.6L128.3,255.6c70.7,0,128-57.2,128-127.8v-0.4c0-70.6-57.3-127.8-128-127.8h0
        c-70.7,0-128,57.2-128,127.8v0.4C0.3,198.4,57.6,255.6,128.3,255.6z"></path>
    <text id="XMLID_128_" transform="matrix(1 0 0 1 33.9727 191.4453)"><tspan x="0" y="0" class="st1 st2 st3">L</tspan><tspan x="20.7" y="0" class="st1 st2 st3 st4">C</tspan><tspan x="45.9" y="0" class="st1 st2 st3">D DIGITS</tspan></text>
    <text id="XMLID_127_" transform="matrix(1 0 0 1 60.3086 220.9023)" class="st1 st5 st6">58x25mm</text>
    <text id="XMLID_126_" transform="matrix(1 0 0 1 201.9805 220.9023)" class="st1 st5 st7"> </text>
    <path id="XMLID_125_" class="st1" d="M55.9,124.5c0,0,0,15,15,15h115c0,0,15,0,15-15V48.3c0,0,0-15-15-15h-115c0,0-15,0-15,15
        V124.5z"></path>
    <rect id="XMLID_124_" x="68.2" y="43.8" class="st0" width="119.3" height="85.2"></rect>
    <path id="XMLID_123_" class="st8" d="M149,135.8"></path>
    <polygon id="XMLID_122_" class="st1" points="82.7,57.8 80.4,60.4 82.7,63 100.3,63 102.6,60.4 100.3,57.8     "></polygon>
    <polygon id="XMLID_121_" class="st1" points="77.5,64.2 77.5,83.1 79.9,85.5 82.3,83.1 82.3,64.2 79.9,61.7    "></polygon>
    <polygon id="XMLID_120_" class="st1" points="100.9,64.2 100.9,83.1 103.3,85.5 105.7,83.1 105.7,64.2 103.3,61.7  "></polygon>
    <polygon id="XMLID_119_" class="st1" points="77.5,64.2 77.5,83.1 79.9,85.5 82.3,83.1 82.3,64.2 79.9,61.7    "></polygon>
    <polygon id="XMLID_118_" class="st1" points="100.9,64.2 100.9,83.1 103.3,85.5 105.7,83.1 105.7,64.2 103.3,61.7  "></polygon>
    <polygon id="XMLID_117_" class="st1" points="77.5,89.2 77.5,108.1 79.9,110.5 82.3,108.1 82.3,89.2 79.9,86.8     "></polygon>
    <polygon id="XMLID_116_" class="st1" points="100.9,89.2 100.9,108.1 103.3,110.5 105.7,108.1 105.7,89.2 103.3,86.8   "></polygon>
    <polygon id="XMLID_115_" class="st1" points="107.4,112.4 107.4,112.5 109.8,115 112.2,112.5 112.2,112.4 109.8,109.9  "></polygon>
    <polygon id="XMLID_114_" class="st1" points="82.7,109.4 80.4,112 82.7,114.6 100.3,114.6 102.6,112 100.3,109.4   "></polygon>
    <polygon id="XMLID_113_" class="st1" points="113.9,64.2 113.9,83.1 116.3,85.5 118.7,83.1 118.7,64.2 116.3,61.7  "></polygon>
    <polygon id="XMLID_112_" class="st1" points="137.3,64.2 137.3,83.1 139.7,85.5 142.2,83.1 142.2,64.2 139.8,61.7  "></polygon>
    <polygon id="XMLID_111_" class="st1" points="113.9,64.2 113.9,83.1 116.3,85.5 118.7,83.1 118.7,64.2 116.3,61.7  "></polygon>
    <polygon id="XMLID_110_" class="st1" points="137.3,64.2 137.3,83.1 139.7,85.5 142.2,83.1 142.2,64.2 139.8,61.7  "></polygon>
    <polygon id="XMLID_109_" class="st1" points="113.9,89.2 113.9,108.1 116.3,110.5 118.7,108.1 118.7,89.2 116.3,86.8   "></polygon>
    <polygon id="XMLID_108_" class="st1" points="137.3,89.2 137.3,108.1 139.7,110.5 142.2,108.1 142.2,89.2 139.8,86.8   "></polygon>
    <polygon id="XMLID_107_" class="st1" points="119.2,109.4 116.9,112 119.2,114.6 136.7,114.6 139,112 136.7,109.4  "></polygon>
    <polygon id="XMLID_106_" class="st1" points="119.2,57.8 116.9,60.4 119.2,63 136.7,63 139,60.4 136.7,57.8    "></polygon>
    <text id="XMLID_105_" transform="matrix(1 0 0 1.0526 148.0742 114.5234)"><tspan x="0" y="0" class="st1 st2 st9">K</tspan><tspan x="15.4" y="0" class="st1 st2 st9">G</tspan></text>
</g>
</svg>