<?xml version="1.1" encoding="UTF-8" standalone="no"?>
<svg version="1.1" id="图层_1" xmlns="http://www.w3.org/2000/svg" xmlns:xlink="http://www.w3.org/1999/xlink" x="0px" y="0px" viewBox="0 0 256 256" style="enable-background:new 0 0 256 256;" xml:space="preserve">
<style type="text/css">
    .st0{fill:#1895D3;}
    .st1{fill:#FFFFFF;}
    .st2{font-family:'Hero';}
    .st3{font-size:31.0444px;}
    .st4{font-family:'Hero-Light';}
</style>
<path id="XMLID_164_" class="st0" d="M256,128C256,57.3,198.7,0,128,0h0C57.3,0,0,57.3,0,128v0c0,70.7,57.3,128,128,128"></path>
<path id="XMLID_103_" class="st0" d="M128,256c70.7,0,128-57.3,128-128"></path>
<text id="XMLID_102_" transform="matrix(1 0 0 1 54.1058 201.0745)" class="st1 st2 st3">Stainless</text>
<text id="XMLID_96_" transform="matrix(1 0 0 1 86.8323 231.1917)" class="st1 st4 st3"> Steel</text>
<rect id="XMLID_94_" x="41.8" y="112.4" class="st1" width="172.4" height="14.9"></rect>
<rect id="XMLID_93_" x="52.9" y="133.3" class="st1" width="150.2" height="6.8"></rect>
<polygon id="XMLID_92_" class="st1" points="166.6,83.5 157,81.4 170.1,104.1 184,81.9 175.6,83.6 175.8,39.6 166.5,39.6 "></polygon>
<polygon id="XMLID_89_" class="st1" points="121.9,83.5 112.3,81.4 125.4,104.1 139.3,81.9 130.9,83.6 131.1,39.6 121.9,39.6 "></polygon>
<polygon id="XMLID_1_" class="st1" points="77.2,83.5 67.7,81.4 80.8,104.1 94.7,81.9 86.2,83.6 86.4,39.6 77.2,39.6 "></polygon>
</svg>